<?xml version="1.0" encoding="UTF-8"?>
<svg width="47px" height="48px" viewBox="0 0 47 48" version="1.1" xmlns="http://www.w3.org/2000/svg" xmlns:xlink="http://www.w3.org/1999/xlink">
    <!-- Generator: Sketch 56.3 (81716) - https://sketch.com -->
    <title>noun_Bank_2728326</title>
    <desc>Created with Sketch.</desc>
    <g id="Symbols" stroke="none" stroke-width="1" fill="none" fill-rule="evenodd">
        <g id="Icon/Bank" transform="translate(-8.000000, -2.000000)" fill-rule="nonzero">
            <g id="noun_Bank_2728326" transform="translate(8.000000, 2.000000)">
                <g id="Group">
                    <path d="M45.53325,47.8485 L0.77175,47.8485 C0.345744,47.8485 0,47.502756 0,47.07675 L0,41.4777037 C0,41.0516977 0.345744,40.7059537 0.77175,40.7059537 L45.53325,40.7059537 C45.959256,40.7059537 46.305,41.0516977 46.305,41.4777037 L46.305,47.07675 C46.305,47.502756 45.959256,47.8485 45.53325,47.8485 Z" id="Path" fill="#F94245"></path>
                    <polygon id="Path" fill="#F94245" points="1.5435 46.305 44.7615 46.305 44.7615 42.2494537 1.5435 42.2494537"></polygon>
                    <path d="M45.5236031,17.9431875 L0.77175,17.9431875 C0.345744,17.9431875 0,17.5974435 0,17.1714375 L0,13.462407 C0,13.184577 0.149333625,12.928356 0.390891375,12.7909845 L22.7670109,0.1003275 C23.0031664,-0.033571125 23.2925726,-0.033571125 23.5287281,0.1003275 L45.9141086,12.8044901 C46.1560522,12.9418616 46.3057717,13.1992403 46.305003,13.477842 L46.2953531,17.1733669 C46.2941955,17.598987 45.9492232,17.9431875 45.5236031,17.9431875 Z" id="Path" fill="#F94245"></path>
                    <polygon id="Path" fill="#F94245" points="1.5435 16.3996875 44.7537825 16.3996875 44.7603424 13.9246852 23.1474836 1.65887662 1.5435 13.9119514"></polygon>
                    <g transform="translate(4.244625, 16.206750)" fill="#F94245" id="Path">
                        <path d="M9.64031513,26.0315134 C9.63259762,26.0315134 9.62488013,26.0315134 9.61716263,26.0311275 C9.19115663,26.0183936 8.85544538,25.6738073 8.86856512,25.2478012 C8.86933688,25.217703 8.87126625,25.1876047 8.8735815,25.1578924 C8.875125,24.3668486 8.24807812,23.4422921 7.15450838,22.6049434 C6.96388613,22.4590826 6.85198238,22.232574 6.85198238,21.9921739 L6.85198238,4.53287363 C6.85198238,4.29285938 6.96388613,4.06635075 7.15450838,3.92049 C8.24769225,3.0823695 8.875125,2.157813 8.875125,1.38336188 C8.875125,1.2703005 8.86856512,1.15878263 8.856603,1.04880825 C8.810298,0.6251175 9.11629688,0.243873 9.53998763,0.197568 C9.96599363,0.1528065 10.3449229,0.457261875 10.3912279,0.880952625 C10.409364,1.0480365 10.418625,1.21704975 10.418625,1.38336188 C10.418625,2.86666538 9.3798495,4.08371512 8.39548238,4.90408538 L8.39548238,21.6205763 C9.3798495,22.4405606 10.418625,23.6576104 10.418625,25.1409139 C10.418625,25.1849036 10.4163098,25.2285075 10.4128369,25.2717255 C10.400103,25.690014 10.0559025,26.0315134 9.64031513,26.0315134 Z"></path>
                        <path d="M1.04379188,26.0427037 C0.630133875,26.0427037 0.287476875,25.7143241 0.272813625,25.2975791 C0.26779725,25.2292792 0.265482,25.1852895 0.265482,25.1409139 C0.265482,23.6576104 1.3042575,22.4405606 2.28862463,21.6205762 L2.28862463,4.9036995 C1.3042575,4.08371512 0.265482,2.86666538 0.265482,1.382976 C0.265482,1.21743562 0.274743,1.04880825 0.292879125,0.8813385 C0.33879825,0.45764775 0.718885125,0.151648875 1.14296175,0.197182125 C1.5666525,0.24310125 1.87303725,0.623574 1.82711812,1.04726475 C1.815156,1.157625 1.808982,1.26991462 1.808982,1.382976 C1.808982,2.15742712 2.43602887,3.08198362 3.52959862,3.91971825 C3.72022087,4.065579 3.83212462,4.29208762 3.83212462,4.53210187 L3.83212462,21.9914021 C3.83212462,22.2318022 3.72022087,22.457925 3.52959862,22.6041716 C2.43602887,23.4415204 1.808982,24.3660769 1.808982,25.140528 L1.81554187,25.2439425 C1.83020512,25.6699485 1.49680912,26.0272687 1.07080312,26.041932 C1.061928,26.0427037 1.052667,26.0427037 1.04379188,26.0427037 Z"></path>
                        <path d="M23.2011203,26.0311275 C23.192631,26.0311275 23.1837559,26.0311275 23.1748808,26.0307416 C22.7488748,26.0160784 22.414707,25.6703344 22.4293703,25.2443284 L22.4347725,25.1578924 C22.436316,24.3664627 21.8092691,23.4419062 20.7156994,22.6045575 C20.5250771,22.4586967 20.4131734,22.2321881 20.4131734,21.991788 L20.4131734,4.53287362 C20.4131734,4.29285937 20.5250771,4.06635075 20.7156994,3.92049 C21.8088833,3.08275537 22.436316,2.15819887 22.436316,1.38374775 C22.436316,1.27068637 22.4297561,1.1591685 22.417794,1.04919413 C22.371489,0.625503375 22.6774879,0.244258875 23.1011786,0.197953875 C23.526027,0.153192375 23.905728,0.45764775 23.9524189,0.8813385 C23.970555,1.04880825 23.979816,1.2178215 23.979816,1.38413362 C23.979816,2.86743712 22.9410405,4.08448687 21.9566734,4.90485712 L21.9566734,21.6205763 C22.9410405,22.4405606 23.979816,23.6576104 23.979816,25.1409139 C23.979816,25.1860613 23.9771149,25.230051 23.973642,25.2740408 C23.9593646,25.6915575 23.61555,26.0311275 23.2011203,26.0311275 Z"></path>
                        <path d="M14.6049829,26.0427037 C14.1913249,26.0427037 13.8486679,25.7143241 13.8340046,25.2975791 C13.8289883,25.2292792 13.826673,25.1852895 13.826673,25.1409139 C13.826673,23.6572245 14.8650626,22.4405606 15.8494297,21.6205762 L15.8494297,4.9036995 C14.8650626,4.08371512 13.826673,2.86666538 13.826673,1.382976 C13.826673,1.21743562 13.835934,1.04880825 13.8540701,0.8813385 C13.8999892,0.45764775 14.2800761,0.151648875 14.7041528,0.197182125 C15.1278435,0.24310125 15.4342283,0.623574 15.3883091,1.04726475 C15.376347,1.157625 15.370173,1.26991462 15.370173,1.382976 C15.370173,2.15742712 15.9972199,3.08198362 17.0904038,3.91971825 C17.281026,4.065579 17.3929298,4.29208762 17.3929298,4.53210187 L17.3929298,21.9914021 C17.3929298,22.2318022 17.281026,22.457925 17.0904038,22.6041716 C15.9972199,23.4415204 15.370173,24.3660769 15.370173,25.140528 L15.3767329,25.2439425 C15.3913961,25.6699485 15.0580001,26.0272687 14.6319941,26.041932 C14.623119,26.0427037 14.613858,26.0427037 14.6049829,26.0427037 Z"></path>
                        <path d="M36.7623112,26.0303558 C36.753822,26.0303558 36.7449469,26.0303558 36.7360718,26.0299699 C36.3100657,26.0153066 35.975898,25.6703344 35.9905612,25.2443284 L35.9955776,25.1602076 C35.9971211,24.3664628 35.3700743,23.4422921 34.2768904,22.6045575 C34.0862681,22.4586967 33.9743644,22.2321881 33.9743644,21.991788 L33.9743644,4.53287363 C33.9743644,4.29285938 34.0862681,4.06635075 34.2768904,3.92049 C35.3700743,3.08275537 35.9971211,2.15819887 35.9971211,1.38374775 C35.9971211,1.27068637 35.9909471,1.1591685 35.978985,1.04919413 C35.93268,0.625503375 36.2386789,0.244258875 36.6623696,0.197953875 C37.0887615,0.153192375 37.466919,0.45764775 37.5136099,0.8813385 C37.531746,1.04726475 37.541007,1.21666387 37.541007,1.38413362 C37.541007,2.86743712 36.5026174,4.08448687 35.5182503,4.90485713 L35.5182503,21.6205763 C36.5026174,22.4405606 37.541007,23.6572245 37.541007,25.1409139 C37.541007,25.1852895 37.5386918,25.2292793 37.5352189,25.2728831 C37.5205556,25.6903999 37.176741,26.0303558 36.7623112,26.0303558 Z"></path>
                        <path d="M28.1661739,26.0427038 C27.7525159,26.0427038 27.4098589,25.7143241 27.3951956,25.2975791 C27.3901792,25.2292793 27.387864,25.1852895 27.387864,25.1409139 C27.387864,23.6572245 28.4262536,22.4405606 29.4106207,21.6205762 L29.4106207,4.9036995 C28.4262536,4.08371512 27.387864,2.86666538 27.387864,1.382976 C27.387864,1.21550625 27.397125,1.04610712 27.4152611,0.880180875 C27.461952,0.456490125 27.8424247,0.152420625 28.2665014,0.19679625 C28.6901921,0.24310125 28.996191,0.62434575 28.949886,1.0480365 C28.9379239,1.15801087 28.9317499,1.26952875 28.9317499,1.38259012 C28.9317499,2.15704125 29.5587967,3.08159775 30.6519806,3.91933237 C30.8426029,4.06519312 30.9545066,4.29170175 30.9545066,4.531716 L30.9545066,21.9910163 C30.9545066,22.2314164 30.8426029,22.4575391 30.6519806,22.6037858 C29.5587967,23.4411345 28.9317499,24.365691 28.9317499,25.1401421 L28.9383097,25.2435566 C28.952973,25.6695626 28.619577,26.0268829 28.193571,26.0415461 C28.18431,26.0427038 28.175049,26.0427038 28.1661739,26.0427038 Z"></path>
                    </g>
                    <path d="M23.1478695,14.1392318 C21.2265979,14.1392318 19.6638041,12.579525 19.6638041,10.662498 C19.6638041,8.745471 21.2265979,7.18576425 23.1478695,7.18576425 C25.0691411,7.18576425 26.6319349,8.745471 26.6319349,10.662498 C26.6319349,12.579525 25.0687552,14.1392318 23.1478695,14.1392318 Z M23.1478695,8.72887838 C22.0778381,8.72887838 21.2073041,9.59632538 21.2073041,10.6621121 C21.2073041,11.7278989 22.0778381,12.5953459 23.1478695,12.5953459 C24.2179009,12.5953459 25.0884349,11.7278989 25.0884349,10.6621121 C25.0884349,9.59632538 24.2179009,8.72887838 23.1478695,8.72887838 Z" id="Shape" fill="#FFFFFF"></path>
                </g>
            </g>
        </g>
    </g>
</svg>