<?xml version="1.0" encoding="UTF-8"?>
<svg width="13px" height="12px" viewBox="0 0 13 12" version="1.1" xmlns="http://www.w3.org/2000/svg" xmlns:xlink="http://www.w3.org/1999/xlink">
    <!-- Generator: Sketch 56.3 (81716) - https://sketch.com -->
    <title>Combined Shape Copy</title>
    <desc>Created with Sketch.</desc>
    <g id="Home-Page" stroke="none" stroke-width="1" fill="none" fill-rule="evenodd" opacity="0.300000012">
        <g id="Home-Page-4.3" transform="translate(-1221.000000, -515.000000)" fill="#000000">
            <g id="Card" transform="translate(637.000000, 124.000000)">
                <g id="Group-10-Copy" transform="translate(41.000000, 372.000000)">
                    <path d="M548.426777,24.3869318 L548.426777,17.8869318 C548.426777,17.4727182 548.762563,17.1369318 549.176777,17.1369318 C549.59099,17.1369318 549.926777,17.4727182 549.926777,17.8869318 L549.926777,24.3869318 L556.426777,24.3869318 C556.84099,24.3869318 557.176777,24.7227182 557.176777,25.1369318 C557.176777,25.5511454 556.84099,25.8869318 556.426777,25.8869318 L549.926777,25.8869318 L549.926777,32.3869318 C549.926777,32.8011454 549.59099,33.1369318 549.176777,33.1369318 C548.762563,33.1369318 548.426777,32.8011454 548.426777,32.3869318 L548.426777,25.8869318 L541.926777,25.8869318 C541.512563,25.8869318 541.176777,25.5511454 541.176777,25.1369318 C541.176777,24.7227182 541.512563,24.3869318 541.926777,24.3869318 L548.426777,24.3869318 Z" id="Combined-Shape-Copy" transform="translate(549.176777, 25.136932) rotate(-315.000000) translate(-549.176777, -25.136932) "></path>
                </g>
            </g>
        </g>
    </g>
</svg>