<?xml version="1.0" encoding="UTF-8"?>
<svg width="42px" height="38px" viewBox="0 0 42 38" version="1.1" xmlns="http://www.w3.org/2000/svg" xmlns:xlink="http://www.w3.org/1999/xlink">
    <!-- Generator: Sketch 56.3 (81716) - https://sketch.com -->
    <title>noun_Credit Card Payment_2299670</title>
    <desc>Created with Sketch.</desc>
    <g id="Home-Page" stroke="none" stroke-width="1" fill="none" fill-rule="evenodd">
        <g id="Home-Page-4.1" transform="translate(-787.000000, -908.000000)" fill="#F12127" fill-rule="nonzero" stroke="#F12127" stroke-width="0.5">
            <g id="Group-18" transform="translate(143.000000, 883.000000)">
                <g id="Group-10" transform="translate(638.000000, 25.000000)">
                    <g id="noun_Credit-Card-Payment_2299670" transform="translate(6.000000, 0.000000)">
                        <g id="Group">
                            <g>
                                <path d="M40.23,19.3692308 C38.8529181,18.0074434 36.6720819,18.0074434 35.295,19.3692308 L28.5,26.4307692 C28.3589039,26.5725594 28.2793929,26.7666312 28.2793929,26.9692308 C28.2793929,27.1718303 28.3589039,27.3659022 28.5,27.5076923 C28.640825,27.6533174 28.8325218,27.7352295 29.0325,27.7352295 C29.2324782,27.7352295 29.4241751,27.6533174 29.565,27.5076923 L36.36,20.5384615 C36.9318609,19.9647095 37.782582,19.7968006 38.5212152,20.1118971 C39.2598483,20.4269935 39.7435361,21.1641534 39.75,21.9846154 C39.7464038,22.5264802 39.5364708,23.0454468 39.165,23.4307692 L30.435,32.3846154 C28.7765961,34.0968002 26.5180938,35.0555068 24.165,35.0461538 L8.13,35.0461538 L8.13,26.4923077 L14.28,24.2307692 C15.2421126,23.8763738 16.2577533,23.6992877 17.28,23.7076923 L23.82,23.7076923 C24.5712878,23.640688 25.2952041,24.0139022 25.690988,24.6722777 C26.0867718,25.3306532 26.0867718,26.1616545 25.690988,26.82003 C25.2952041,27.4784055 24.5712878,27.8516197 23.82,27.7846154 L19.065,27.7846154 C18.6507864,27.7846154 18.315,28.1290117 18.315,28.5538462 C18.315,28.9786806 18.6507864,29.3230769 19.065,29.3230769 L23.805,29.3230769 C25.1055527,29.4106046 26.345544,28.7486345 27.0217145,27.6058322 C27.6978848,26.4630298 27.6978848,25.0292778 27.0217145,23.8864755 C26.345544,22.7436732 25.1055527,22.0817031 23.805,22.1692308 L17.265,22.1692308 C16.0739036,22.163488 14.8910312,22.3717631 13.77,22.7846154 L8.1,24.8615385 C8.04161202,24.4996082 7.73767119,24.2333351 7.38,24.2307692 L1.5,24.2307692 C1.08578644,24.2307692 0.75,24.5751655 0.75,25 L0.75,36.8307692 C0.75,37.2556037 1.08578644,37.6 1.5,37.6 L7.38,37.6 C7.79421356,37.6 8.13,37.2556037 8.13,36.8307692 L8.13,36.5076923 L24.165,36.5076923 C26.9069513,36.5217323 29.5412978,35.4143988 31.485,33.4307692 L40.23,24.4615385 C41.5897728,23.0625645 41.5897728,20.798974 40.23,19.4 L40.23,19.3692308 Z M6.63,36.0615385 L2.25,36.0615385 L2.25,25.7692308 L6.63,25.7692308 L6.63,36.0615385 Z" id="Shape"></path>
                                <path d="M8.34,19.1384615 L30,19.1384615 C31.2426407,19.1384615 32.25,18.1052725 32.25,16.8307692 L32.25,2.70769231 C32.25,1.43318905 31.2426407,0.4 30,0.4 L8.34,0.4 C7.09735932,0.4 6.09,1.43318905 6.09,2.70769231 L6.09,16.8307692 C6.09,18.1052725 7.09735932,19.1384615 8.34,19.1384615 Z M7.59,2.70769231 C7.59,2.28285789 7.92578645,1.93846154 8.34,1.93846154 L30,1.93846154 C30.4142136,1.93846154 30.75,2.28285789 30.75,2.70769231 L30.75,16.8307692 C30.75,17.2556037 30.4142136,17.6 30,17.6 L8.34,17.6 C7.92578645,17.6 7.59,17.2556037 7.59,16.8307692 L7.59,2.70769231 Z" id="Shape"></path>
                                <path d="M11.75,6.53846154 L13.67,6.53846154 C14.0842136,6.53846154 14.42,6.19406518 14.42,5.76923077 C14.42,5.34439635 14.0842136,5 13.67,5 L11.75,5 C11.3391373,5.00818478 11.0079802,5.34783315 11,5.76923077 C11,6.19406518 11.3357864,6.53846154 11.75,6.53846154 Z" id="Path"></path>
                                <path d="M11.75,11.5384615 L13.25,11.5384615 C13.6642136,11.5384615 14,11.1940652 14,10.7692308 C14,10.3443964 13.6642136,10 13.25,10 L11.75,10 C11.3357864,10 11,10.3443964 11,10.7692308 C11,11.1940652 11.3357864,11.5384615 11.75,11.5384615 Z" id="Path"></path>
                                <path d="M18.75,11.5384615 L22.65,11.5384615 C23.0642136,11.5384615 23.4,11.1940652 23.4,10.7692308 C23.4,10.3443964 23.0642136,10 22.65,10 L18.75,10 C18.3357864,10 18,10.3443964 18,10.7692308 C18,11.1940652 18.3357864,11.5384615 18.75,11.5384615 Z" id="Path"></path>
                                <path d="M25.75,11.5384615 L27.25,11.5384615 C27.6642136,11.5384615 28,11.1940652 28,10.7692308 C28,10.3443964 27.6642136,10 27.25,10 L25.75,10 C25.3357864,10 25,10.3443964 25,10.7692308 C25,11.1940652 25.3357864,11.5384615 25.75,11.5384615 Z" id="Path"></path>
                                <path d="M11.75,15.5384615 L17.15,15.5384615 C17.5608628,15.5302768 17.8920199,15.1906285 17.9,14.7692308 C17.9,14.3443964 17.5642136,14 17.15,14 L11.75,14 C11.3357864,14 11,14.3443964 11,14.7692308 C11.0079802,15.1906285 11.3391373,15.5302768 11.75,15.5384615 Z" id="Path"></path>
                                <path d="M18.75,6.53846154 L24.15,6.53846154 C24.5608628,6.53027677 24.8920199,6.19062846 24.9,5.76923077 C24.9,5.34439635 24.5642136,5 24.15,5 L18.75,5 C18.3357864,5 18,5.34439635 18,5.76923077 C18.0079802,6.19062846 18.3391373,6.53027677 18.75,6.53846154 Z" id="Path-Copy"></path>
                            </g>
                        </g>
                    </g>
                </g>
            </g>
        </g>
    </g>
</svg>