<?xml version="1.0" encoding="utf-8"?>
<!-- Generator: Adobe Illustrator 19.2.1, SVG Export Plug-In . SVG Version: 6.00 Build 0)  -->
<svg version="1.1" id="Layer_1" xmlns="http://www.w3.org/2000/svg" xmlns:xlink="http://www.w3.org/1999/xlink" x="0px" y="0px"
	 viewBox="0 0 41 41" style="enable-background:new 0 0 41 41;" xml:space="preserve">
<style type="text/css">
	.st0{fill:#E1C077;}
	.st1{fill:#150601;}
	.st2{fill:#E1C077;stroke:#E1C077;stroke-width:0.5;}
</style>
<title>Group</title>
<desc>Created with Sketch.</desc>
<g id="Symbols">
	<g id="Icon_x2F_crown" transform="translate(5.000000, 5.000000)">
		<g id="Group">
			<g id="Rectangle">
				<g>
					<path id="path-1_2_" class="st0" d="M1.5-2.5h28c2.2,0,4,1.8,4,4v28c0,2.2-1.8,4-4,4h-28c-2.2,0-4-1.8-4-4v-28
						C-2.5-0.7-0.7-2.5,1.5-2.5z"/>
				</g>
				<g>
					<path id="path-1_1_" class="st1" d="M1.5-2.5h28c2.2,0,4,1.8,4,4v28c0,2.2-1.8,4-4,4h-28c-2.2,0-4-1.8-4-4v-28
						C-2.5-0.7-0.7-2.5,1.5-2.5z"/>
				</g>
			</g>
			<path id="Shape" class="st2" d="M23.4,13c-0.1-0.1-0.3-0.1-0.4,0l-4.3,1.8l-3.3-7c-0.1-0.1-0.2-0.2-0.4-0.2l0,0
				c-0.2,0-0.3,0.1-0.4,0.2l-3.5,7l-4-1.8c-0.1-0.1-0.3,0-0.4,0c-0.1,0.1-0.2,0.2-0.2,0.4l1,9c0,0.1,0.1,0.2,0.2,0.3
				c0.1,0.1,0.2,0.1,0.3,0.1l4.2-0.8c1.9-0.4,3.8-0.4,5.6,0l4.2,0.8h0.1c0.1,0,0.2,0,0.3-0.1c0.1-0.1,0.2-0.2,0.2-0.3l1-9
				C23.6,13.2,23.5,13.1,23.4,13z M11.2,15.6c0.2,0.1,0.5,0,0.6-0.2L15,8.9l3.1,6.5c0.1,0.2,0.3,0.3,0.6,0.2l4-1.6l-0.5,4.1H7.9
				L7.4,14L11.2,15.6z M21.8,21.9L18,21.1c-2-0.4-4-0.4-6,0l-3.7,0.7L8,19h14.1L21.8,21.9z"/>
		</g>
	</g>
</g>
</svg>
