<?xml version="1.0" encoding="UTF-8"?>
<svg width="19px" height="17px" viewBox="0 0 19 17" version="1.1" xmlns="http://www.w3.org/2000/svg" xmlns:xlink="http://www.w3.org/1999/xlink">
    <!-- Generator: Sketch 56.3 (81716) - https://sketch.com -->
    <title>Shape</title>
    <desc>Created with Sketch.</desc>
    <g id="Home-Page" stroke="none" stroke-width="1" fill="none" fill-rule="evenodd">
        <g id="Home-Page-4.1" transform="translate(-379.000000, -1133.000000)" fill="#FFFFFF" fill-rule="nonzero" stroke="#FFFFFF" stroke-width="0.5">
            <path d="M396.81941,1139.39355 C396.696978,1139.30723 396.534935,1139.28651 396.394498,1139.34521 L392.148976,1141.06134 L388.886513,1134.23826 C388.818095,1134.09323 388.666855,1134 388.49761,1134 C388.49761,1134 388.494009,1134 388.494009,1134 C388.328365,1134 388.177125,1134.08632 388.105106,1134.2279 L384.633788,1141.05789 L380.604323,1139.34866 C380.463886,1139.28996 380.298242,1139.30377 380.17581,1139.39355 C380.049776,1139.47988 379.984959,1139.6249 380.002964,1139.77338 L381.011231,1148.63027 C381.025634,1148.74767 381.086851,1148.85126 381.187677,1148.92032 C381.284903,1148.98938 381.410936,1149.01355 381.529768,1148.99283 L385.706872,1148.17447 C387.561362,1147.81191 389.441059,1147.81191 391.29555,1148.17447 L395.472654,1148.99283 C395.501462,1148.99973 395.53027,1148.99973 395.559077,1148.99973 C395.649101,1148.99973 395.739125,1148.97211 395.814745,1148.92032 C395.91197,1148.85126 395.976788,1148.74767 395.991191,1148.63027 L396.999458,1139.77338 C397.00666,1139.6249 396.941843,1139.47988 396.81941,1139.39355 Z M384.666197,1141.97638 C384.878653,1142.06616 385.127119,1141.97983 385.227945,1141.77956 L388.483206,1135.37774 L391.536814,1141.7692 C391.634039,1141.97293 391.882505,1142.06616 392.098562,1141.97983 L396.052408,1140.3742 L395.587885,1144.42799 L381.400133,1144.42799 L380.939211,1140.38801 L384.666197,1141.97638 Z M395.173775,1148.07434 L391.461194,1147.35266 C389.491473,1146.96593 387.496545,1146.96938 385.526825,1147.35612 L381.814243,1148.07434 L381.493758,1145.25671 L395.49426,1145.25671 L395.173775,1148.07434 Z" id="Shape"></path>
        </g>
    </g>
</svg>