<?xml version="1.0" encoding="utf-8"?>
<!-- Generator: Adobe Illustrator 19.2.1, SVG Export Plug-In . SVG Version: 6.00 Build 0)  -->
<svg version="1.1" id="Layer_1" xmlns="http://www.w3.org/2000/svg" xmlns:xlink="http://www.w3.org/1999/xlink" x="0px" y="0px"
	 viewBox="0 0 19 17" style="enable-background:new 0 0 19 17;" xml:space="preserve">
<style type="text/css">
	.st0{fill:#E1C077;stroke:#E1C077;stroke-width:0.5;}
</style>
<title>Shape</title>
<desc>Created with Sketch.</desc>
<g id="Category-Page">
	<g id="Category-Page-2.1" transform="translate(-222.000000, -1036.000000)">
		<g id="Group-2" transform="translate(191.000000, 1027.000000)">
			<path id="Shape" class="st0" d="M48.8,15.4c-0.1-0.1-0.3-0.1-0.4,0l-4.2,1.7l-3.3-6.8c-0.1-0.1-0.2-0.2-0.4-0.2h0
				c-0.2,0-0.3,0.1-0.4,0.2l-3.5,6.8l-4-1.7c-0.1-0.1-0.3,0-0.4,0C32,15.5,32,15.6,32,15.8l1,8.9c0,0.1,0.1,0.2,0.2,0.3
				c0.1,0.1,0.2,0.1,0.3,0.1l4.2-0.8c1.9-0.4,3.7-0.4,5.6,0l4.2,0.8c0,0,0.1,0,0.1,0c0.1,0,0.2,0,0.3-0.1c0.1-0.1,0.2-0.2,0.2-0.3
				l1-8.9C49,15.6,48.9,15.5,48.8,15.4z M36.7,18c0.2,0.1,0.5,0,0.6-0.2l3.3-6.4l3.1,6.4c0.1,0.2,0.3,0.3,0.6,0.2l4-1.6l-0.5,4.1
				H33.4l-0.5-4L36.7,18z M47.2,24.1l-3.7-0.7c-2-0.4-4-0.4-5.9,0l-3.7,0.7l-0.3-2.8h14L47.2,24.1z"/>
		</g>
	</g>
</g>
</svg>
