<?xml version="1.0" encoding="UTF-8"?>
<svg width="37px" height="33px" viewBox="0 0 37 33" version="1.1" xmlns="http://www.w3.org/2000/svg" xmlns:xlink="http://www.w3.org/1999/xlink">
    <!-- Generator: Sketch 56.3 (81716) - https://sketch.com -->
    <title>Shape</title>
    <desc>Created with Sketch.</desc>
    <g id="Home-Page" stroke="none" stroke-width="1" fill="none" fill-rule="evenodd">
        <g id="Home-Page-4.2" transform="translate(-1037.000000, -259.000000)" fill="#F12127" fill-rule="nonzero">
            <g id="Dropdown" transform="translate(0.000000, 212.000000)">
                <g id="Group-35" transform="translate(988.000000, 21.000000)">
                    <g id="Group-37">
                        <g id="Group-38">
                            <path d="M85.6069521,37.865812 C85.3404817,37.6758982 84.9878002,37.6303189 84.6821429,37.7594603 L75.4418879,41.5349459 L68.3412339,26.524162 C68.1923239,26.2051069 67.8631545,26 67.4947983,26 C67.4947983,26 67.4869609,26 67.4869609,26 C67.1264421,26 66.7972727,26.1899138 66.6405253,26.5013723 L59.0853041,41.5273494 L50.3152911,37.7670568 C50.0096338,37.6379155 49.6491149,37.6683017 49.3826445,37.865812 C49.1083366,38.0557257 48.967264,38.3747809 49.0064509,38.7014325 L51.2009135,58.1865847 C51.2322629,58.4448675 51.3654982,58.672764 51.5849444,58.824695 C51.7965533,58.976626 52.0708611,59.0298019 52.3294942,58.9842225 L61.4208393,57.1838401 C65.457083,56.3862023 69.5481883,56.3862023 73.584432,57.1838401 L82.6757771,58.9842225 C82.738476,58.9994156 82.8011749,58.9994156 82.8638739,58.9994156 C83.059808,58.9994156 83.2557422,58.9386432 83.4203269,58.824695 C83.6319358,58.672764 83.7730084,58.4448675 83.8043578,58.1865847 L85.9988204,38.7014325 C86.0144952,38.3747809 85.8734226,38.0557257 85.6069521,37.865812 Z M59.1558404,43.5480318 C59.618245,43.7455421 60.1590233,43.5556284 60.3784696,43.1150284 L67.4634488,29.0310237 L74.1095356,43.0922388 C74.3211445,43.5404353 74.8619227,43.7455421 75.3321647,43.5556284 L83.9375931,40.0232323 L82.9265728,48.9415827 L52.047349,48.9415827 L51.0441661,40.0536185 L59.1558404,43.5480318 Z M82.0252757,56.9635401 L73.9449509,55.375861 C69.6579114,54.5250474 65.3160104,54.5326439 61.028971,55.3834576 L52.9486462,56.9635401 L52.2511206,50.7647548 L82.7228013,50.7647548 L82.0252757,56.9635401 Z" id="Shape"></path>
                        </g>
                    </g>
                </g>
            </g>
        </g>
    </g>
</svg>