<?xml version="1.0" encoding="UTF-8"?>
<svg width="50px" height="51px" viewBox="0 0 50 51" version="1.1" xmlns="http://www.w3.org/2000/svg" xmlns:xlink="http://www.w3.org/1999/xlink">
    <!-- Generator: Sketch 56.3 (81716) - https://sketch.com -->
    <title>Group</title>
    <desc>Created with Sketch.</desc>
    <g id="Cart-Page" stroke="none" stroke-width="1" fill="none" fill-rule="evenodd">
        <g id="Cart-Page-3.1-" transform="translate(-221.000000, -1292.000000)" fill-rule="nonzero">
            <g id="noun_Email_2129160" transform="translate(221.000000, 1292.000000)">
                <g id="Group">
                    <path d="M42.3387097,12.909375 L42.3387097,2.709375 C42.3387097,1.1953125 41.1290323,0 39.5967742,0 L10.4032258,0 C8.87096774,0 7.66129032,1.1953125 7.66129032,2.709375 L7.66129032,12.909375 L0.564516129,19.921875 C0.403225806,20.08125 0.322580645,20.240625 0.322580645,20.4796875 L0.322580645,48.2109375 C0.322580645,48.928125 0.64516129,49.6453125 1.12903226,50.1234375 C1.12903226,50.1234375 1.12903226,50.1234375 1.12903226,50.1234375 C1.12903226,50.1234375 1.12903226,50.1234375 1.12903226,50.1234375 C1.61290323,50.6015625 2.33870968,50.9203125 3.06451613,50.9203125 L46.9354839,50.9203125 C47.6612903,50.9203125 48.3064516,50.6015625 48.8709677,50.1234375 C48.8709677,50.1234375 48.8709677,50.1234375 48.9516129,50.1234375 C48.9516129,50.1234375 48.9516129,50.1234375 48.9516129,50.04375 C49.4354839,49.565625 49.7580645,48.928125 49.7580645,48.2109375 L49.7580645,20.559375 C49.7580645,20.559375 49.7580645,20.559375 49.7580645,20.559375 C49.7580645,20.3203125 49.6774194,20.1609375 49.516129,20.0015625 L42.3387097,12.909375 Z M42.3387097,15.2203125 L47.7419355,20.559375 L42.3387097,25.8984375 L42.3387097,15.2203125 Z M7.66129032,15.2203125 L7.66129032,25.8984375 L2.25806452,20.559375 L7.66129032,15.2203125 Z M1.93548387,48.290625 L1.93548387,22.471875 L15,35.38125 L1.93548387,48.290625 Z M3.06451613,49.40625 L16.1290323,36.496875 L24.4354839,44.7046875 C24.5967742,44.8640625 24.8387097,44.94375 25,44.94375 C25.1612903,44.94375 25.4032258,44.8640625 25.5645161,44.7046875 L33.8709677,36.496875 L46.9354839,49.40625 L3.06451613,49.40625 Z M48.0645161,48.290625 L35,35.38125 L48.0645161,22.471875 L48.0645161,48.290625 L48.0645161,48.290625 Z" id="Shape" fill="#F94245"></path>
                    <path d="M30,25.021875 C29.7580645,24.6234375 29.2741935,24.4640625 28.9516129,24.703125 C27.5806452,25.4203125 26.1290323,25.7390625 24.3548387,25.7390625 C20.483871,25.7390625 16.6129032,23.0296875 16.6129032,17.85 C16.6129032,12.9890625 19.8387097,7.96875 26.0483871,7.96875 C30.4032258,7.96875 33.3870968,10.9171875 33.3870968,15.2203125 C33.3870968,19.0453125 31.2903226,21.0375 29.1935484,21.0375 C28.8709677,21.0375 28.0645161,20.878125 27.9032258,19.8421875 C28.5483871,18.965625 28.9516129,18.009375 29.1129032,17.053125 L29.9193548,13.1484375 C30,12.75 29.7580645,12.3515625 29.3548387,12.1921875 C28.7096774,12.0328125 27.983871,11.953125 27.2580645,11.953125 C23.5483871,11.953125 20.5645161,15.0609375 20.5645161,18.965625 C20.5645161,21.0375 21.8548387,22.3921875 23.7903226,22.3921875 C24.7580645,22.3921875 25.8064516,21.9140625 26.6129032,21.2765625 C27.1774194,22.2328125 28.1451613,22.7109375 29.1129032,22.7109375 C32.016129,22.7109375 34.9193548,20.1609375 34.9193548,15.3 C35,9.9609375 31.2903226,6.375 26.0483871,6.375 C19.7580645,6.375 15,11.315625 15,17.85 C15,23.3484375 18.9516129,27.3328125 24.3548387,27.3328125 C26.4516129,27.3328125 28.1451613,26.934375 29.7580645,26.1375 C30.0806452,25.81875 30.2419355,25.340625 30,25.021875 Z M23.8709677,20.6390625 C22.5,20.6390625 22.2580645,19.6828125 22.2580645,18.80625 C22.2580645,15.8578125 24.5967742,13.3875 27.3387097,13.3875 C27.6612903,13.3875 27.983871,13.3875 28.2258065,13.4671875 L27.5806452,16.575 C27.2580645,18.4875 25.5645161,20.6390625 23.8709677,20.6390625 Z" id="Shape" fill="#FFFFFF"></path>
                </g>
            </g>
        </g>
    </g>
</svg>