<?xml version="1.0" encoding="UTF-8"?>
<svg width="20px" height="15px" viewBox="0 0 20 15" version="1.1" xmlns="http://www.w3.org/2000/svg" xmlns:xlink="http://www.w3.org/1999/xlink">
    <!-- Generator: Sketch 56.3 (81716) - https://sketch.com -->
    <title>Group 35</title>
    <desc>Created with Sketch.</desc>
    <g id="Home-Page" stroke="none" stroke-width="1" fill="none" fill-rule="evenodd">
        <g id="Home-Page-4.1" transform="translate(-346.000000, -29.000000)" fill-rule="nonzero" stroke="#ED2024" stroke-width="0.5">
            <g id="Group-32" transform="translate(0.000000, 24.000000)">
                <g id="Header" transform="translate(174.000000, 0.000000)">
                    <g id="Group-35" transform="translate(173.000000, 6.000000)">
                        <path d="M2.3996,13 L15.6004,13 C16.9236,13 18,11.9557313 18,10.6720299 L18,2.32797015 C18,1.04426866 16.9236,0 15.6004,0 L2.3996,0 C1.0764,0 0,1.04426866 0,2.32797015 L0,10.6720299 C0,11.9557313 1.0764,13 2.3996,13 Z M0.8,2.32797015 C0.8,1.47229851 1.5176,0.776119403 2.3996,0.776119403 L15.6004,0.776119403 C16.4824,0.776119403 17.2,1.47229851 17.2,2.32797015 L17.2,10.6720299 C17.2,11.5277015 16.4824,12.2238806 15.6004,12.2238806 L2.3996,12.2238806 C1.5176,12.2238806 0.8,11.5277015 0.8,10.6720299 L0.8,2.32797015 Z" id="Shape" fill="#ED1F24"></path>
                        <path d="M2.5322,3.14619403 L8.8188,7.10420896 C8.885,7.14592537 8.9608,7.16668657 9.0366,7.16668657 C9.113,7.16668657 9.1896,7.14553731 9.2562,7.10304478 L15.4696,3.14502985 C17.037965,2.09534314 17.6160498,1.42741754 17.4946498,1.24832799 C17.3734498,1.06904441 16.4491939,1.42741754 15.0304,2.49619403 L9.0352,6.31528358 L2.9678,2.49502985 C1.37419033,1.24832799 0.9202,1.06846232 0.8,1.24832799 C0.6798,1.42819366 0.6798,1.73518689 2.5322,3.14619403 Z" id="Path" fill="#ED2024"></path>
                    </g>
                </g>
            </g>
        </g>
    </g>
</svg>