<?xml version="1.0" encoding="UTF-8"?>
<svg width="42px" height="37px" viewBox="0 0 42 37" version="1.1" xmlns="http://www.w3.org/2000/svg" xmlns:xlink="http://www.w3.org/1999/xlink">
    <!-- Generator: Sketch 56.3 (81716) - https://sketch.com -->
    <title>Shape</title>
    <desc>Created with Sketch.</desc>
    <g id="Home-Page" stroke="none" stroke-width="1" fill="none" fill-rule="evenodd">
        <g id="Home-Page-4.1" transform="translate(-945.000000, -908.000000)" fill="#F12127" fill-rule="nonzero" stroke="#F12127" stroke-width="0.805100024">
            <g id="Group-18" transform="translate(143.000000, 883.000000)">
                <g id="Group-7" transform="translate(803.000000, 26.000000)">
                    <g id="present">
                        <path d="M39.349498,8.87284745 L32.4007224,8.87284745 C33.5718327,7.66697887 34.0250082,6.16748129 34.0262327,5.04405393 C34.0286041,2.90709402 31.8594612,0.236657858 29.0588857,0.0478590338 C25.9657878,-0.165660096 23.9516612,2.56635576 23.8560286,2.69863954 L20.0378653,8.3292017 L16.2093347,2.66845263 C16.1244367,2.55144318 14.0983633,-0.201394002 11.0176204,0.0117633676 C8.21668163,0.200562192 6.0470898,2.9082597 6.04949796,5.04562156 C6.05109388,6.16945088 6.50427755,7.66697887 7.67537959,8.87284745 L0.612653061,8.87284745 C0.274644898,8.87284745 0,8.98865103 0,9.32151095 L0,15.9298315 C0,16.2627317 0.274644898,16.5100151 0.612653061,16.5100151 L2.44897959,16.5100151 L2.44897959,34.2526027 C2.44897959,34.5855028 2.71484898,35 3.05284898,35 L16.7781143,35 L23.2597061,35 L37.1380735,35 C37.4760735,35 37.5510204,34.5855028 37.5510204,34.2526027 L37.5510204,16.5100151 L39.349498,16.5100151 C39.687502,16.5100151 40,16.2627317 40,15.9298315 L40,9.32151095 C40,8.98865103 39.687502,8.87284745 39.349498,8.87284745 Z M24.8632653,3.44173595 C24.8804082,3.41894504 26.5864,1.09475394 28.9752163,1.25059235 C31.1973796,1.40092397 32.8033388,3.65489332 32.801744,5.06210176 C32.8005184,6.20675241 32.1751347,7.66697887 30.4448082,8.87284745 L23.2597061,8.87284745 L21.2392163,8.87284745 L24.8632653,3.44173595 Z M22.4489796,15.3041465 L17.5510204,15.3041465 L17.5510204,10.078716 L20.0964408,10.078716 C20.0976653,10.078716 20.098849,10.078716 20.0996245,10.078716 L22.4489796,10.078716 L22.4489796,15.3041465 Z M7.27399065,5.0424863 C7.2724,3.63563962 8.87872653,1.40092397 11.101298,1.25059235 C13.504849,1.08534816 15.1957061,3.4386007 15.201298,3.44487121 L18.8364816,8.87284745 L16.7781143,8.87284745 L9.63129796,8.87284745 C7.90137959,7.66697887 7.27558367,6.18713695 7.27399065,5.0424863 Z M1.2244898,10.078716 L16.3265306,10.078716 L16.3265306,15.3041465 L3.05284898,15.3041465 L1.2244898,15.3041465 L1.2244898,10.078716 Z M3.67346939,16.5100151 L16.3265306,16.5100151 L16.3265306,33.7941314 L3.67346939,33.7941314 L3.67346939,16.5100151 Z M17.5510204,33.7941314 L17.5510204,16.5100151 L22.4489796,16.5100151 L22.4489796,33.7941314 L17.5510204,33.7941314 Z M36.3265306,33.7941314 L23.6734694,33.7941314 L23.6734694,16.5100151 L36.3265306,16.5100151 L36.3265306,33.7941314 Z M38.7755102,15.3041465 L37.1380694,15.3041465 L23.6734694,15.3041465 L23.6734694,10.078716 L38.7755102,10.078716 L38.7755102,15.3041465 Z" id="Shape"></path>
                    </g>
                </g>
            </g>
        </g>
    </g>
</svg>