<?xml version="1.0" encoding="UTF-8"?>
<svg width="62px" height="51px" viewBox="0 0 62 51" version="1.1" xmlns="http://www.w3.org/2000/svg" xmlns:xlink="http://www.w3.org/1999/xlink">
    <!-- Generator: Sketch 56.3 (81716) - https://sketch.com -->
    <title>Group</title>
    <desc>Created with Sketch.</desc>
    <g id="Cart-Page" stroke="none" stroke-width="1" fill="none" fill-rule="evenodd">
        <g id="Cart-Page-3.1-" transform="translate(-708.000000, -1292.000000)">
            <g id="Group" transform="translate(708.000000, 1292.000000)">
                <path d="M15.5,1.66176541 L15.5,29.344613 L11.2727273,29.344613 L11.2727273,27.6607676 C11.2726399,26.8846518 10.6418168,26.25551 9.86363636,26.2554324 L1.40909091,26.2554324 C1.36508103,26.2533729 1.32099852,26.2533729 1.27698864,26.2554324 C0.550812392,26.3236909 -0.00313614192,26.9333152 -1.32499211e-05,27.6607676 L-1.32499211e-05,47.3356703 C-1.32499211e-05,48.1118135 0.63088295,48.7409981 1.40909091,48.7410757 L9.86363636,48.7410757 C10.6418443,48.7409981 11.2726788,48.1118135 11.2727273,47.3356703 L11.2727273,45.2936162 L21.9069602,50.6953622 C21.9980406,50.7417478 22.4257191,50.8491135 22.5454545,50.8491135 L42.2727273,50.8491135 C42.5209324,50.8462579 42.7639778,50.778068 42.9772727,50.6514432 L60.040483,40.6822703 C61.519891,39.8187189 62,38.2091784 62,36.7955514 C62,34.0956973 60.040483,32.5894123 58.3825796,32.5894123 C58.1471796,32.5894123 56.6007568,32.8058357 56.3636364,32.8353492 L56.3636364,1.66141405 C56.3635569,0.88529273 55.7327314,0.256142388 54.9545455,0.256064865 L16.9090909,0.256064865 C16.865081,0.254005317 16.8209985,0.254005317 16.7769886,0.256064865 C16.050807,0.32467511 15.4968565,0.934307672 15.5,1.66176541 Z" id="Path" fill="#F94245" fill-rule="nonzero"></path>
                <path d="M18.3181818,3.06712162 L53.5454545,3.06712162 L53.5454545,33.0626541 L48.8558239,35.4341351 C48.0654274,33.7611405 46.3514332,32.5795459 44.3863636,32.5795459 L31,32.5795459 C30.1543517,32.5795459 29.1054998,31.806573 27.5653409,30.713027 C26.025182,29.6194811 23.967285,28.3634703 21.1363636,28.3634703 L18.3181818,28.3634703 L18.3181818,3.06712162 Z" id="Path" stroke="#F94245" stroke-width="2" fill="#F94245" fill-rule="nonzero"></path>
                <path d="M28.7542614,5.87782 C28.028077,5.94607913 27.4741255,6.55571579 27.4772594,7.28317622 L27.4772594,12.904587 C27.4772594,13.6807084 28.1081777,14.3099362 28.8863636,14.3099362 L42.9772727,14.3099362 C43.7554587,14.3099362 44.3863636,13.6807084 44.3863636,12.904587 L44.3863636,7.28317622 C44.3863636,6.50705215 43.7554615,5.87789752 42.9772727,5.87782 L28.8863636,5.87782 C28.8423538,5.87576045 28.7982712,5.87576045 28.7542614,5.87782 L28.7542614,5.87782 Z" id="Path" fill="#F94245" fill-rule="nonzero"></path>
                <polygon id="Path" stroke="#FFFFFF" stroke-width="2" fill="#FFFFFF" fill-rule="nonzero" points="2.81818182 29.0661027 8.45454545 29.0661027 8.45454545 45.9304054 2.81818182 45.9304054 2.81818182 29.0661027"></polygon>
                <path d="M11.9,31.5518022 L21.7636364,31.5518022 C23.7744175,31.5518022 25.1347102,32.3819751 26.5633523,33.3963968 C27.9919943,34.4107481 29.4625568,35.7679481 31.6272727,35.7679481 L45.0136364,35.7679481 C46.2089971,35.7679481 47.1272727,36.6837103 47.1272727,37.8759157 C47.1272727,39.0680508 46.2090245,39.9838832 45.0136364,39.9839535 L32.3318182,39.9839535 C31.8233751,39.9763585 31.3502614,40.2425404 31.0938161,40.6804747 C30.8373709,41.118409 30.8373709,41.6601683 31.0938161,42.0981026 C31.3502614,42.5360369 31.8233751,42.8022188 32.3318182,42.7946238 L45.0136364,42.7946238 C47.4140939,42.7946238 49.4297075,41.0533968 49.8573864,38.7762184 L56.8588068,35.2189265 C57.0629397,35.1154184 57.3452764,35.0652454 57.6954545,35.0652454 C58.8794657,35.0652454 59.8090909,35.9923914 59.8090909,37.173213 C59.8090909,37.9148454 59.5089003,38.4983697 59.2586648,38.6444616 L42.5036932,48.4160346 L23.502983,48.4160346 L11.9,42.5091859 L11.9,31.5518022 L11.9,31.5518022 Z" id="Path" stroke="#FFFFFF" stroke-width="0.7" fill="#FFFFFF" fill-rule="nonzero"></path>
                <path d="M49.759427,24.1797433 C47.9085367,23.0597226 46.1169084,21.848195 44.391476,20.5498492 C45.357552,20.6818153 46.3317235,20.7486585 47.307131,20.749908 C47.8035447,20.7536474 48.299822,20.7321303 48.793961,20.6854433 C48.9759007,20.6652451 49.1300825,20.5449236 49.190966,20.3756257 C49.6261202,19.0317742 49.8466055,17.6300128 49.8446,16.2200698 C49.843202,13.1280933 48.695087,10.5716375 46.524305,8.82745804 C46.4081856,8.73399422 46.2539217,8.69966156 46.108022,8.73481099 C41.379698,9.87023157 38.438432,14.166258 37.832063,15.1263169 L35.167937,15.1263169 C34.561568,14.166258 31.620302,9.87023157 26.891969,8.73480216 C26.7460686,8.69973512 26.5918423,8.73405939 26.475686,8.82744922 C24.304904,10.5716375 23.156789,13.1280933 23.1554,16.2200698 C23.1533945,17.6300128 23.3738798,19.0317742 23.809034,20.3756257 C23.8699165,20.5449247 24.0240986,20.6652475 24.206039,20.6854463 C24.7001772,20.732145 25.1964551,20.7536622 25.692869,20.749911 C26.6682918,20.7486519 27.6424779,20.6818029 28.608569,20.5498345 C26.883123,21.8481875 25.0914796,23.0597201 23.240573,24.1797433 C23.0176383,24.3047711 22.9354457,24.5802422 23.054507,24.8033492 C24.313307,27.1606228 25.860281,28.2510198 25.925414,28.2962904 C26.0802616,28.4038112 26.2853561,28.4112295 26.447864,28.3151875 C26.696165,28.1684228 32.464445,24.7117875 35.16578,19.265111 L37.83422,19.265111 C40.535555,24.7117875 46.303835,28.1684286 46.552136,28.3151875 C46.7146439,28.4112295 46.9197384,28.4038112 47.074586,28.2962904 C47.139719,28.2510286 48.686702,27.1606316 49.945493,24.8033492 C50.0645543,24.5802422 49.9823617,24.3047711 49.759427,24.1797433 Z M46.102427,9.70342863 C50.028035,13.0512845 48.757274,18.4782728 48.3794,19.7788375 C47.190095,19.8525963 42.761477,19.9513492 38.6108,17.805758 L38.6108,15.6740316 C39.056132,14.9684345 41.808434,10.8563139 46.102436,9.70342863 L46.102427,9.70342863 Z M24.620456,19.7785316 C24.242414,18.476911 22.972586,13.0508286 26.897564,9.70343452 C31.191566,10.8563139 33.943868,14.9684345 34.389218,15.6740228 L34.389218,17.8057492 C30.246464,19.9467786 25.811783,19.8497022 24.620456,19.7785316 Z M26.233817,27.3386257 C25.3883826,26.5988782 24.6736287,25.7270778 24.118517,24.7585492 C25.521404,23.9217404 27.732137,22.3848198 30.702218,20.1814698 C30.7164816,20.1699354 30.7300411,20.1575886 30.742826,20.1444933 C31.9634633,19.8509191 33.1500829,19.4350971 34.283972,18.9035845 C32.024264,23.4120698 27.413426,26.5804522 26.233817,27.3386257 Z M37.655732,18.3287816 L35.344268,18.3287816 L35.344268,16.0626433 L37.655732,16.0626433 L37.655732,18.3287816 Z M46.76603,27.3387816 C45.586982,26.5819198 40.978457,23.4183551 38.715998,18.9035845 C39.8499106,19.4351193 41.0365565,19.8509601 42.257222,20.1445492 C42.269988,20.1576259 42.2835284,20.1699541 42.297773,20.1814698 C45.267854,22.3848198 47.478587,23.9217404 48.881474,24.7585492 C48.3263693,25.7271667 47.6115611,26.5990259 46.76603,27.3387816 L46.76603,27.3387816 Z" id="Shape" stroke="#FFFFFF" stroke-width="0.6" fill="#FFFFFF" fill-rule="nonzero"></path>
                <path d="M15.5,17.1957125 L22.5,17.1957125" id="Line" stroke="#FFFFFF" stroke-width="1.7" stroke-linecap="square"></path>
                <path d="M49.5,17.1957125 L56.5,17.1957125" id="Line" stroke="#FFFFFF" stroke-width="1.7" stroke-linecap="square"></path>
            </g>
        </g>
    </g>
</svg>