<?xml version="1.0" encoding="UTF-8"?>
<svg width="62px" height="49px" viewBox="0 0 62 49" version="1.1" xmlns="http://www.w3.org/2000/svg" xmlns:xlink="http://www.w3.org/1999/xlink">
    <!-- Generator: Sketch 56.3 (81716) - https://sketch.com -->
    <title>Group 2</title>
    <desc>Created with Sketch.</desc>
    <g id="Symbols" stroke="none" stroke-width="1" fill="none" fill-rule="evenodd">
        <g id="Icon/Cash" transform="translate(0.000000, -2.000000)">
            <g id="Group-2" transform="translate(0.000000, 3.000000)">
                <g id="Hand" transform="translate(0.000000, 5.000000)" fill-rule="nonzero">
                    <path d="M15.5,21.344613 L11.2727273,21.344613 L11.2727273,19.6607676 C11.2726399,18.8846518 10.6418168,18.25551 9.86363636,18.2554324 L1.40909091,18.2554324 C1.36508103,18.2533729 1.32099852,18.2533729 1.27698864,18.2554324 C0.550812392,18.3236909 -0.00313614192,18.9333152 -0.000333022462,19.6607676 L-0.000333022462,39.3356703 C-0.000333022462,40.1118135 0.63088295,40.7409981 1.40909091,40.7410757 L9.86363636,40.7410757 C10.6418443,40.7409981 11.2726788,40.1118135 11.2727273,39.3356703 L11.2727273,37.2936162 L21.9069602,42.6953622 C21.9980406,42.7417478 22.4257191,42.8491135 22.5454545,42.8491135 L42.2727273,42.8491135 C42.5209324,42.8462579 42.7639778,42.778068 42.9772727,42.6514432 L60.040483,32.6822703 C61.519891,31.8187189 62,30.2091784 62,28.7955514 C62,26.0956973 58.6400844,24.771944 57.2622771,24.771944 C55.8844699,24.771944 49.7214557,28.1278333 49.4843353,28.1573469 C48.437227,27.016885 47.7230023,26.404194 47.3416609,26.3192739 C45.0537838,25.8097916 42.9772727,25.9236199 42.6344228,25.9236199 C38.4760109,25.9236199 35.3496947,25.8097916 31.9791763,25.6262308 C27.9093729,25.4045864 25.9388641,21.344613 22.5454545,21.344613 C19.7654615,21.344613 17.4169766,21.344613 15.5,21.344613 Z" id="Path" fill="#F94245"></path>
                    <polygon id="Path" stroke="#FFFFFF" stroke-width="2" fill="#FFFFFF" points="2.81818182 21.0661027 8.45454545 21.0661027 8.45454545 37.9304054 2.81818182 37.9304054 2.81818182 21.0661027"></polygon>
                    <path d="M11.9,23.5518022 L21.7636364,23.5518022 C23.7744175,23.5518022 25.1347102,24.3819751 26.5633523,25.3963968 C27.9919943,26.4107481 29.4625568,27.7679481 31.6272727,27.7679481 L45.0136364,27.7679481 C46.2089971,27.7679481 47.1272727,28.6837103 47.1272727,29.8759157 C47.1272727,31.0680508 46.2090245,31.9838832 45.0136364,31.9839535 L32.3318182,31.9839535 C31.8233751,31.9763585 31.3502614,32.2425404 31.0938161,32.6804747 C30.8373709,33.118409 30.8373709,33.6601683 31.0938161,34.0981026 C31.3502614,34.5360369 31.8233751,34.8022188 32.3318182,34.7946238 L45.0136364,34.7946238 C47.4140939,34.7946238 49.4297075,33.0533968 49.8573864,30.7762184 L56.8588068,27.2189265 C57.0629397,27.1154184 57.3452764,27.0652454 57.6954545,27.0652454 C58.8794657,27.0652454 59.8090909,27.9923914 59.8090909,29.173213 C59.8090909,29.9148454 59.5089003,30.4983697 59.2586648,30.6444616 L42.5036932,40.4160346 L23.502983,40.4160346 L11.9,34.5091859 L11.9,23.5518022 L11.9,23.5518022 Z" id="Path" stroke="#FFFFFF" stroke-width="0.7" fill="#FFFFFF"></path>
                </g>
                <g id="noun_cash_1615190" transform="translate(18.000000, 0.000000)">
                    <g id="Group" transform="translate(0.550000, 0.000000)">
                        <path d="M0.8635,23.8975 L33.517,23.8975 C33.8966958,23.8975 34.2045,23.5896958 34.2045,23.21 L34.2045,17.6 L39.8365,17.6 C40.2161958,17.6 40.524,17.2921958 40.524,16.9125 L40.524,0.99 C40.524,0.610304234 40.2161958,0.3025 39.8365,0.3025 L7.183,0.3025 C6.80330423,0.3025 6.4955,0.610304234 6.4955,0.99 L6.4955,6.6 L0.8635,6.6 C0.483804234,6.6 0.176,6.90780423 0.176,7.2875 L0.176,23.21 C0.176,23.5896958 0.483804234,23.8975 0.8635,23.8975 Z" id="Path" stroke="#F94245" stroke-width="1.2" fill="#F94245" fill-rule="nonzero"></path>
                        <path d="M9.35,1.65 L37.95,1.65 C38.5575132,1.65 39.05,2.14248678 39.05,2.75 L39.05,6.05 L34.1693114,6.05 L8.25,6.05 L8.25,2.75 C8.25,2.14248678 8.74248678,1.65 9.35,1.65 Z" id="Rectangle" fill="#FFFFFF"></path>
                        <path d="M32.2997808,8.12898037 L41.2203311,8.12898037 C41.8278443,8.12898037 42.3203311,8.62146714 42.3203311,9.22898037 L42.3203311,12.5289804 L32.8796819,12.4499014 C32.5234373,12.4469173 32.205349,12.6724894 32.0903311,13.0096689 L32.0903311,13.0096689 L31.2311558,9.48982618 C31.0870946,8.89964088 31.4487497,8.3044165 32.038935,8.16035533 C32.1243179,8.1395138 32.211891,8.12898037 32.2997808,8.12898037 Z" id="Rectangle" fill="#FFFFFF" transform="translate(36.609656, 10.569325) rotate(-270.000000) translate(-36.609656, -10.569325) "></path>
                        <path d="M1.551,7.997 L7.095,7.997 C7.12429897,7.99900805 7.15370103,7.99900805 7.183,7.997 C7.21229897,7.99900805 7.24170103,7.99900805 7.271,7.997 L30.6295,7.997 C31.8445264,7.997 32.8295,8.98197355 32.8295,10.197 L32.8295,22.55 L1.551,22.55 L1.551,7.997 Z" id="Path" fill="#F94245" fill-rule="nonzero"></path>
                        <path d="M28.875,8.987 L5.5,8.987 C4.12219985,8.99002482 3.00602482,10.1061998 3.003,11.484 L3.003,19.0355 C3.00602482,20.4133002 4.12219985,21.5294752 5.5,21.5325 L28.875,21.5325 C30.244201,21.5174561 31.3470732,20.4047805 31.35,19.0355 L31.35,11.4895 C31.35,10.118076 30.2463412,9.00207059 28.875,8.987 Z M29.975,19.03 C29.975,19.6375132 29.4825132,20.13 28.875,20.13 L5.5,20.13 C4.89248678,20.13 4.4,19.6375132 4.4,19.03 L4.4,11.4895 C4.4,10.8819868 4.89248678,10.3895 5.5,10.3895 L28.875,10.3895 C29.4825132,10.3895 29.975,10.8819868 29.975,11.4895 L29.975,19.03 Z" id="Shape" stroke="#FFFFFF" stroke-width="0.55" fill="#FFFFFF" fill-rule="nonzero"></path>
                        <path d="M16.5,12.1 C14.6774603,12.1 13.2,13.5774603 13.2,15.4 C13.2,17.2225397 14.6774603,18.7 16.5,18.7 C18.3225397,18.7 19.8,17.2225397 19.8,15.4 C19.7887436,13.5821433 18.3178567,12.1112564 16.5,12.1 Z M16.5,17.705875 C15.5757027,17.705875 14.7424176,17.1490917 14.3887043,16.2951523 C14.034991,15.4412129 14.2305073,14.4582861 14.8840842,13.8047092 C15.5376611,13.1511323 16.5205879,12.955616 17.3745273,13.3093293 C18.2284667,13.6630426 18.78525,14.4963277 18.78525,15.420625 C18.7829797,16.6817921 17.7611671,17.7036047 16.5,17.705875 Z" id="Shape" stroke="#FFFFFF" stroke-width="0.55" fill="#FFFFFF" fill-rule="nonzero"></path>
                    </g>
                </g>
            </g>
        </g>
    </g>
</svg>