<?xml version="1.0" encoding="UTF-8"?>
<svg width="62px" height="49px" viewBox="0 0 62 49" version="1.1" xmlns="http://www.w3.org/2000/svg" xmlns:xlink="http://www.w3.org/1999/xlink">
    <!-- Generator: Sketch 56.3 (81716) - https://sketch.com -->
    <title>Group 2</title>
    <desc>Created with Sketch.</desc>
    <g id="Symbols" stroke="none" stroke-width="1" fill="none" fill-rule="evenodd">
        <g id="Icon/Card" transform="translate(0.000000, -2.000000)" fill-rule="nonzero">
            <g id="Group-2" transform="translate(0.000000, 2.000000)">
                <g id="Hand" transform="translate(0.000000, 6.000000)">
                    <path d="M15.5,21.344613 L11.2727273,21.344613 L11.2727273,19.6607676 C11.2726399,18.8846518 10.6418168,18.25551 9.86363636,18.2554324 L1.40909091,18.2554324 C1.36508103,18.2533729 1.32099852,18.2533729 1.27698864,18.2554324 C0.550812392,18.3236909 -0.00313614192,18.9333152 -0.000333022462,19.6607676 L-0.000333022462,39.3356703 C-0.000333022462,40.1118135 0.63088295,40.7409981 1.40909091,40.7410757 L9.86363636,40.7410757 C10.6418443,40.7409981 11.2726788,40.1118135 11.2727273,39.3356703 L11.2727273,37.2936162 L21.9069602,42.6953622 C21.9980406,42.7417478 22.4257191,42.8491135 22.5454545,42.8491135 L42.2727273,42.8491135 C42.5209324,42.8462579 42.7639778,42.778068 42.9772727,42.6514432 L60.040483,32.6822703 C61.519891,31.8187189 62,30.2091784 62,28.7955514 C62,26.0956973 58.6400844,24.771944 57.2622771,24.771944 C55.8844699,24.771944 49.7214557,28.1278333 49.4843353,28.1573469 C48.437227,27.016885 47.7230023,26.404194 47.3416609,26.3192739 C45.0537838,25.8097916 42.9772727,25.9236199 42.6344228,25.9236199 C38.4760109,25.9236199 35.3496947,25.8097916 31.9791763,25.6262308 C27.9093729,25.4045864 25.9388641,21.344613 22.5454545,21.344613 C19.7654615,21.344613 17.4169766,21.344613 15.5,21.344613 Z" id="Path" fill="#F94245"></path>
                    <polygon id="Path" stroke="#FFFFFF" stroke-width="2" fill="#FFFFFF" points="2.81818182 21.0661027 8.45454545 21.0661027 8.45454545 37.9304054 2.81818182 37.9304054 2.81818182 21.0661027"></polygon>
                    <path d="M11.9,23.5518022 L21.7636364,23.5518022 C23.7744175,23.5518022 25.1347102,24.3819751 26.5633523,25.3963968 C27.9919943,26.4107481 29.4625568,27.7679481 31.6272727,27.7679481 L45.0136364,27.7679481 C46.2089971,27.7679481 47.1272727,28.6837103 47.1272727,29.8759157 C47.1272727,31.0680508 46.2090245,31.9838832 45.0136364,31.9839535 L32.3318182,31.9839535 C31.8233751,31.9763585 31.3502614,32.2425404 31.0938161,32.6804747 C30.8373709,33.118409 30.8373709,33.6601683 31.0938161,34.0981026 C31.3502614,34.5360369 31.8233751,34.8022188 32.3318182,34.7946238 L45.0136364,34.7946238 C47.4140939,34.7946238 49.4297075,33.0533968 49.8573864,30.7762184 L56.8588068,27.2189265 C57.0629397,27.1154184 57.3452764,27.0652454 57.6954545,27.0652454 C58.8794657,27.0652454 59.8090909,27.9923914 59.8090909,29.173213 C59.8090909,29.9148454 59.5089003,30.4983697 59.2586648,30.6444616 L42.5036932,40.4160346 L23.502983,40.4160346 L11.9,34.5091859 L11.9,23.5518022 L11.9,23.5518022 Z" id="Path" stroke="#FFFFFF" stroke-width="0.7" fill="#FFFFFF"></path>
                </g>
                <g id="noun_credit_2127088" transform="translate(22.000000, 0.000000)">
                    <g id="Group" transform="translate(0.072600, 0.000000)">
                        <path d="M34.06392,23.87088 L1.8513,23.87088 C0.84942,23.87088 0.02904,23.05776 0.02904,22.04862 L0.02904,1.815 C0.02904,0.81312 0.84942,0 1.8513,0 L34.06392,0 C35.0658,0 35.88618,0.81312 35.88618,1.82226 L35.88618,22.05588 C35.88618,23.0505 35.0658,23.87088 34.06392,23.87088 Z" id="Path" fill="#F94245"></path>
                        <path d="M1.8513,1.08174 C1.452,1.08174 1.11804,1.40844 1.11804,1.815 L1.11804,22.04862 C1.11804,22.44792 1.44474,22.78188 1.8513,22.78188 L34.06392,22.78188 C34.46322,22.78188 34.79718,22.45518 34.79718,22.04862 L34.79718,1.815 C34.79718,1.40844 34.47048,1.08174 34.06392,1.08174 L1.8513,1.08174 L1.8513,1.08174 Z" id="Path" fill="#F94245"></path>
                        <path d="M34.3862603,5.2635 L1.5285608,5.2635 C1.24725663,5.2635 1.01398,5.01666 1.01398,4.719 C1.01398,4.42134 1.24725663,4.1745 1.5285608,4.1745 L34.3793992,4.1745 C34.6607034,4.1745 34.89398,4.42134 34.89398,4.719 C34.89398,5.01666 34.6675644,5.2635 34.3862603,5.2635 Z" id="Path" stroke="#FFFFFF" stroke-width="0.847" fill="#FFFFFF"></path>
                        <path d="M34.3862603,10.07688 L1.5285608,10.07688 C1.24725663,10.07688 1.01398,9.83004 1.01398,9.53238 C1.01398,9.23472 1.24725663,8.98788 1.5285608,8.98788 L34.3793992,8.98788 C34.6607034,8.98788 34.89398,9.23472 34.89398,9.53238 C34.89398,9.83004 34.6675644,10.07688 34.3862603,10.07688 Z" id="Path" stroke="#FFFFFF" stroke-width="0.847" fill="#FFFFFF"></path>
                        <path d="M13.95372,15.57996 L4.2834,15.57996 C3.98574,15.57996 3.7389,15.33312 3.7389,15.03546 C3.7389,14.7378 3.98574,14.49096 4.2834,14.49096 L13.95372,14.49096 C14.25138,14.49096 14.49822,14.7378 14.49822,15.03546 C14.49822,15.33312 14.25138,15.57996 13.95372,15.57996 Z" id="Path" stroke="#FFFFFF" stroke-width="0.847" fill="#FFFFFF"></path>
                        <path d="M10.91178,19.602 L4.2834,19.602 C3.98574,19.602 3.7389,19.35516 3.7389,19.0575 C3.7389,18.75984 3.98574,18.513 4.2834,18.513 L10.91178,18.513 C11.20944,18.513 11.45628,18.75984 11.45628,19.0575 C11.45628,19.35516 11.20944,19.602 10.91178,19.602 Z" id="Path" stroke="#FFFFFF" stroke-width="0.847" fill="#FFFFFF"></path>
                        <path d="M24.82194,21.07578 C22.60038,21.07578 20.79264,19.26804 20.79264,17.04648 C20.79264,14.82492 22.60038,13.01718 24.82194,13.01718 C25.48986,13.01718 26.15778,13.18416 26.74584,13.5036 C26.92008,13.59798 27.02898,13.77948 27.02898,13.98276 C27.02898,14.18604 26.92008,14.36754 26.74584,14.46192 C25.79478,14.97738 25.20672,15.972 25.20672,17.04648 C25.20672,18.12822 25.79478,19.11558 26.74584,19.63104 C26.92008,19.72542 27.02898,19.90692 27.02898,20.1102 C27.02898,20.31348 26.92008,20.49498 26.74584,20.58936 C26.15778,20.9088 25.48986,21.07578 24.82194,21.07578 Z M24.82194,14.10618 C23.20296,14.10618 21.88164,15.4275 21.88164,17.04648 C21.88164,18.66546 23.20296,19.98678 24.82194,19.98678 C24.99618,19.98678 25.17042,19.97226 25.34466,19.94322 C24.5751,19.19544 24.11772,18.15726 24.11772,17.04648 C24.11772,15.94296 24.56784,14.90478 25.34466,14.14974 C25.17042,14.1207 24.99618,14.10618 24.82194,14.10618 Z" id="Shape" stroke="#FFFFFF" stroke-width="0.55" fill="#FFFFFF"></path>
                        <path d="M28.15428,21.07578 C25.93272,21.07578 24.12498,19.26804 24.12498,17.04648 C24.12498,14.82492 25.93272,13.01718 28.15428,13.01718 C30.37584,13.01718 32.18358,14.82492 32.18358,17.04648 C32.18358,19.26804 30.37584,21.07578 28.15428,21.07578 Z M28.15428,14.10618 C26.5353,14.10618 25.21398,15.4275 25.21398,17.04648 C25.21398,18.66546 26.5353,19.98678 28.15428,19.98678 C29.77326,19.98678 31.09458,18.66546 31.09458,17.04648 C31.09458,15.4275 29.77326,14.10618 28.15428,14.10618 Z" id="Shape" stroke="#FFFFFF" stroke-width="0.55" fill="#FFFFFF"></path>
                    </g>
                </g>
            </g>
        </g>
    </g>
</svg>