<?xml version="1.0" encoding="UTF-8"?>
<svg width="23px" height="24px" viewBox="0 0 23 24" version="1.1" xmlns="http://www.w3.org/2000/svg" xmlns:xlink="http://www.w3.org/1999/xlink">
    <!-- Generator: Sketch 58 (84663) - https://sketch.com -->
    <title>Shape</title>
    <desc>Created with Sketch.</desc>
    <g id="Contact" stroke="none" stroke-width="1" fill="none" fill-rule="evenodd" opacity="0.800000012">
        <g id="Information-page-1.3" transform="translate(-469.000000, -485.000000)" fill="#000000" fill-rule="nonzero" stroke="#000000" stroke-width="0.8">
            <g id="Group" transform="translate(466.000000, 380.000000)">
                <path d="M5.86922839,126.967067 C6.02350946,127.111023 6.17247882,127.25023 6.30768602,127.385439 C6.71016887,127.787565 7.39465531,128 8.28798858,128 C10.9114911,128 15.3194872,126.211049 19.2561896,122.210776 C21.6211084,119.762277 23.4367479,116.906404 24.3687118,114.169244 C25.2229315,111.660013 25.2094108,109.620639 24.3332199,108.713667 C24.1564848,108.530474 23.9630902,108.300794 23.7581064,108.057369 C22.9869425,107.14065 22.0269714,106 20.7941715,106 C20.0135914,106 19.254741,106.467856 18.5383843,107.390573 C16.1176925,110.506867 16.4460529,111.31112 18.0919591,112.988606 C18.1837068,113.082077 18.2795591,113.179797 18.3787915,113.282516 C18.788759,113.707135 17.7701177,116.020675 15.5232638,118.346962 C13.8923269,120.035194 11.9576568,121.308303 11.023037,121.308303 C10.8059812,121.308303 10.7362046,121.236825 10.7132677,121.213332 C10.6104136,121.108115 10.5109398,121.001897 10.413156,120.897929 C9.81896865,120.265123 9.20450023,119.610824 8.2747093,119.610824 C7.43835621,119.610824 6.49359591,120.159656 5.3015996,121.338044 C4.41430236,122.215525 3.98864113,123.063015 4.00023032,123.928999 C4.01785554,125.235598 5.04446448,126.195554 5.86922839,126.967067 Z M6.0442497,122.036569 C7.02281913,121.065295 7.77063001,120.592965 8.33053067,120.592965 C8.8226879,120.592965 9.19587521,120.965059 9.76391465,121.572447 C9.86517074,121.680891 9.96834183,121.791076 10.0748642,121.900516 C10.2443425,122.074624 10.5521801,122.282558 11.0553486,122.282558 C12.4521081,122.282558 14.6426386,120.655893 16.194035,119.043902 C17.2202403,117.977616 18.1425563,116.745181 18.7249583,115.662478 C19.4981431,114.224844 19.5991598,113.193379 19.0251359,112.596687 C18.9248373,112.492471 18.8281294,112.393478 18.7352515,112.298713 C17.4284975,110.961813 17.1931908,110.721047 19.2525432,108.059932 C19.7719893,107.388124 20.2734822,107.047619 20.7428987,107.047619 C21.5294885,107.047619 22.2890288,107.953975 22.9595212,108.753628 C23.1737628,109.009069 23.3760356,109.250333 23.5747178,109.457024 C24.0376711,109.93781 24.1755517,111.518461 23.383935,113.852253 C22.5066217,116.438999 20.7867045,119.148616 18.54399,121.479423 C14.837012,125.260052 10.7499047,126.952381 8.34345698,126.952381 C7.47093116,126.952381 7.14490093,126.719823 7.04532048,126.619835 C6.90408859,126.478061 6.74849414,126.332059 6.58739404,126.180834 C5.87237768,125.509275 5.06161088,124.748424 5.05,123.881615 C5.04270017,123.319744 5.37710856,122.698925 6.0442497,122.036569 Z" id="Shape" transform="translate(14.500000, 117.000000) scale(-1, 1) translate(-14.500000, -117.000000) "></path>
            </g>
        </g>
    </g>
</svg>