<?xml version="1.0" encoding="UTF-8"?>
<svg width="25px" height="19px" viewBox="0 0 25 19" version="1.1" xmlns="http://www.w3.org/2000/svg" xmlns:xlink="http://www.w3.org/1999/xlink">
    <!-- Generator: Sketch 58 (84663) - https://sketch.com -->
    <title>Combined Shape</title>
    <desc>Created with Sketch.</desc>
    <g id="Contact" stroke="none" stroke-width="1" fill="none" fill-rule="evenodd" opacity="0.800000012">
        <g id="Information-page-1.3" transform="translate(-468.000000, -528.000000)" fill="#000000" fill-rule="nonzero" stroke="#000000" stroke-width="0.8">
            <g id="Group" transform="translate(466.000000, 380.000000)">
                <path d="M22.9338444,149 C24.6246,149 26,150.365582 26,152.044269 L26,152.044269 L26,162.955731 C26,164.634418 24.6246,166 22.9338444,166 L22.9338444,166 L6.06615556,166 C4.3754,166 3,164.634418 3,162.955731 L3,162.955731 L3,152.044269 C3,150.365582 4.3754,149 6.06615556,149 L6.06615556,149 Z M24.8740063,151.405344 L24.8612498,151.421834 C24.5691783,151.802692 23.8031365,152.43943 22.4421807,153.290439 L22.4421807,153.290439 L14.6541612,157.925472 C14.5706832,157.975233 14.474671,158 14.3789094,158 C14.2838999,158 14.1888905,157.975688 14.1059139,157.926836 L14.1059139,157.926836 L6.22614377,153.291802 C4.86604569,152.323876 4.30267173,151.799584 4.09959755,151.488977 C4.04929349,151.665898 4.02222222,151.852005 4.02222222,152.044269 L4.02222222,152.044269 L4.02222222,162.955731 C4.02222222,164.074687 4.93915556,164.985075 6.06615556,164.985075 L6.06615556,164.985075 L22.9338444,164.985075 C24.0608444,164.985075 24.9777778,164.074687 24.9777778,162.955731 L24.9777778,162.955731 L24.9777778,152.044269 C24.9777778,151.821146 24.9413192,151.606316 24.8740063,151.405344 Z M22.9338444,150.014925 L6.06615556,150.014925 C5.31916114,150.014925 4.66445447,150.414882 4.30786988,151.010432 C4.64432147,151.079234 5.34222385,151.484133 6.77213491,152.529256 L6.77213491,152.529256 L14.3771546,157.002965 L21.8916772,152.53062 C23.2432225,151.579411 24.2367336,151.108718 24.702457,151.029738 L24.6480247,150.940074 C24.2831398,150.383595 23.6510263,150.014925 22.9338444,150.014925 L22.9338444,150.014925 Z" id="Combined-Shape"></path>
            </g>
        </g>
    </g>
</svg>