<?xml version="1.0" encoding="UTF-8"?>
<svg width="18px" height="25px" viewBox="0 0 18 25" version="1.1" xmlns="http://www.w3.org/2000/svg" xmlns:xlink="http://www.w3.org/1999/xlink">
    <!-- Generator: Sketch 58 (84663) - https://sketch.com -->
    <title>noun_Map Marker_70787</title>
    <desc>Created with Sketch.</desc>
    <g id="Contact" stroke="none" stroke-width="1" fill="none" fill-rule="evenodd" opacity="0.800000012">
        <g id="Information-page-1.3" transform="translate(-472.000000, -565.000000)" fill-rule="nonzero" stroke="#000000" stroke-width="1.8">
            <g id="Group" transform="translate(466.000000, 380.000000)">
                <g id="noun_Map-Marker_70787" transform="translate(7.000000, 186.000000)">
                    <path d="M0,8.1245294 C0,16.8013289 7.3770419,22.6487428 7.69118533,22.8935662 C7.78228185,22.9644362 7.89114093,23 8,23 C8.10885907,23 8.21771815,22.9644362 8.30881467,22.8935662 C8.62270435,22.6490005 16,16.8013289 16,8.1245294 C16,3.64451864 12.4112031,-3.55271368e-15 8,-3.55271368e-15 C3.5887969,-3.55271368e-15 0,3.64477635 0,8.1245294 Z" id="Shape"></path>
                    <path d="M8,12.5454545 C9.83793628,12.5454545 11.3333333,10.9820264 11.3333333,9.06047564 C11.3333333,7.1389249 9.83793628,5.57575758 8,5.57575758 C6.16206372,5.57575758 4.66666667,7.13918573 4.66666667,9.06047564 C4.66666667,10.9822872 6.1623132,12.5454545 8,12.5454545 Z" id="Shape"></path>
                </g>
            </g>
        </g>
    </g>
</svg>