<?xml version="1.0" encoding="UTF-8"?>
<svg width="22px" height="22px" viewBox="0 0 22 22" version="1.1" xmlns="http://www.w3.org/2000/svg" xmlns:xlink="http://www.w3.org/1999/xlink">
    <!-- Generator: Sketch 56.3 (81716) - https://sketch.com -->
    <title>instagram-logo</title>
    <desc>Created with Sketch.</desc>
    <g id="Home-Page" stroke="none" stroke-width="1" fill="none" fill-rule="evenodd">
        <g id="Home-Page-4.1" transform="translate(-388.000000, -3584.000000)" fill-rule="nonzero">
            <g id="instagram-logo" transform="translate(388.000000, 3584.000000)">
                <path d="M15.9286652,0 L6.07107452,0 C2.72348606,0 0,2.72361619 0,6.07120465 L0,15.9287954 C0,19.2765139 2.72348606,22 6.07107452,22 L15.9286652,22 C19.2765139,22 22,19.2763838 22,15.9287954 L22,6.07120465 C22,2.72361619 19.2765139,0 15.9286652,0 Z" id="Shape" fill="#FFFFFF"></path>
                <path d="M11,5.5 C7.96725432,5.5 5.5,7.96731096 5.5,11.0001263 C5.5,14.0328153 7.96725432,16.5 11,16.5 C14.0327457,16.5 16.5,14.0328153 16.5,11.0001263 C16.5,7.96731096 14.0327457,5.5 11,5.5 Z M11,14.6060213 C9.01162684,14.6060213 7.39380897,12.9884188 7.39380897,11 C7.39380897,9.01145494 9.01150059,7.39372618 11,7.39372618 C12.9884994,7.39372618 14.606191,9.01145494 14.606191,11 C14.606191,12.9884188 12.9883732,14.6060213 11,14.6060213 Z" id="Shape" fill="#F63118"></path>
                <path d="M16.9583333,3.66666667 C16.5970833,3.66666667 16.2422083,3.81291667 15.9870833,4.06916667 C15.7307083,4.32416667 15.5833333,4.67916667 15.5833333,5.04166667 C15.5833333,5.40304167 15.7308333,5.75791667 15.9870833,6.01416667 C16.2420833,6.26916667 16.5970833,6.41666667 16.9583333,6.41666667 C17.3208333,6.41666667 17.6745833,6.26916667 17.9308333,6.01416667 C18.1870833,5.75791667 18.3333333,5.40291667 18.3333333,5.04166667 C18.3333333,4.67916667 18.1870833,4.32416667 17.9308333,4.06916667 C17.6758333,3.81291667 17.3208333,3.66666667 16.9583333,3.66666667 Z" id="Path" fill="#F63118"></path>
            </g>
        </g>
    </g>
</svg>