<?xml version="1.0" encoding="UTF-8"?>
<svg width="19px" height="19px" viewBox="0 0 19 19" version="1.1" xmlns="http://www.w3.org/2000/svg" xmlns:xlink="http://www.w3.org/1999/xlink">
    <!-- Generator: Sketch 56.3 (81716) - https://sketch.com -->
    <title>instagram-logo copy</title>
    <desc>Created with Sketch.</desc>
    <g id="Home-Page" stroke="none" stroke-width="1" fill="none" fill-rule="evenodd">
        <g id="Home-Page-4.1" transform="translate(-649.000000, -3820.000000)" fill-rule="nonzero">
            <g id="FOOOTER#1" transform="translate(348.000000, 3751.000000)">
                <g id="Social_icons" transform="translate(219.000000, 68.000000)">
                    <g id="Group-33">
                        <g id="instagram-logo-copy" transform="translate(82.000000, 1.000000)">
                            <path d="M13.7565745,0 L5.24320072,0 C2.3521016,0 0,2.35221398 0,5.2433131 L0,13.7566869 C0,16.6478984 2.3521016,19 5.24320072,19 L13.7565745,19 C16.6478984,19 19,16.647786 19,13.7566869 L19,5.2433131 C19,2.35221398 16.6478984,0 13.7565745,0 Z" id="Shape" fill="#181818"></path>
                            <path d="M9.5,4.75 C6.88081055,4.75 4.75,6.88085946 4.75,9.50010904 C4.75,12.1192496 6.88081055,14.25 9.5,14.25 C12.1191894,14.25 14.25,12.1192496 14.25,9.50010904 C14.25,6.88085946 12.1191894,4.75 9.5,4.75 Z M9.5,12.6142911 C7.78276863,12.6142911 6.38556229,11.2172708 6.38556229,9.5 C6.38556229,7.78262017 7.7826596,6.38549079 9.5,6.38549079 C11.2173404,6.38549079 12.6144377,7.78262017 12.6144377,9.5 C12.6144377,11.2172708 11.2172314,12.6142911 9.5,12.6142911 Z" id="Shape" fill="#FCFCFC"></path>
                            <path d="M14.6458333,3.16666667 C14.3338447,3.16666667 14.0273617,3.29297348 13.8070265,3.5142803 C13.5856117,3.73450758 13.4583333,4.04109848 13.4583333,4.35416667 C13.4583333,4.66626326 13.5857197,4.97274621 13.8070265,5.19405303 C14.0272538,5.4142803 14.3338447,5.54166667 14.6458333,5.54166667 C14.9589015,5.54166667 15.2644129,5.4142803 15.4857197,5.19405303 C15.7070265,4.97274621 15.8333333,4.6661553 15.8333333,4.35416667 C15.8333333,4.04109848 15.7070265,3.73450758 15.4857197,3.5142803 C15.2654924,3.29297348 14.9589015,3.16666667 14.6458333,3.16666667 Z" id="Path" fill="#FCFCFC"></path>
                        </g>
                    </g>
                </g>
            </g>
        </g>
    </g>
</svg>