<?xml version="1.0" encoding="UTF-8"?>
<svg width="18px" height="19px" viewBox="0 0 18 19" version="1.1" xmlns="http://www.w3.org/2000/svg" xmlns:xlink="http://www.w3.org/1999/xlink">
    <!-- Generator: Sketch 56.3 (81716) - https://sketch.com -->
    <title>Shape</title>
    <desc>Created with Sketch.</desc>
    <g id="Home-Page" stroke="none" stroke-width="1" fill="none" fill-rule="evenodd" opacity="0.5">
        <g id="Home-Page-4.1" transform="translate(-173.000000, -27.000000)" fill="#ED2024" fill-rule="nonzero" stroke="#F01B16" stroke-width="0.5">
            <g id="Group-32" transform="translate(0.000000, 24.000000)">
                <g id="Header" transform="translate(174.000000, 0.000000)">
                    <path d="M1.42417401,20.2018244 C1.54172149,20.313063 1.65522196,20.4206323 1.75823696,20.5251116 C2.06489057,20.8358458 2.58640404,21 3.26703892,21 C5.26589798,21 8.62437119,19.6176287 11.6237635,16.5265089 C13.4256064,14.6344871 14.8089508,12.4276756 15.5190185,10.3125973 C16.1698526,8.37364672 16.1595511,6.79776659 15.4919771,6.09692481 C15.3573217,5.95536597 15.2099735,5.77788633 15.0537954,5.58978495 C14.4662419,4.88141139 13.7348354,4 12.7955592,4 C12.2008315,4 11.6226598,4.36152544 11.0768642,5.07453395 C9.23252765,7.48257921 9.48270696,8.10404762 10.7367307,9.40028628 C10.8066338,9.47251411 10.879664,9.54802504 10.9552697,9.62739841 C11.2676259,9.95551365 10.4915182,11.7432492 8.77962953,13.5408341 C7.53701099,14.845377 6.06297661,15.8291433 5.35088536,15.8291433 C5.18550948,15.8291433 5.13234638,15.7739103 5.11487062,15.7557568 C5.03650563,15.6744522 4.96071602,15.5923751 4.8862141,15.5120361 C4.43349993,15.0230497 3.96533351,14.5174549 3.25692137,14.5174549 C2.61969997,14.5174549 1.8998826,14.941552 0.991694932,15.8521249 C0.315658943,16.5301782 -0.00865437653,17.1850569 0.000175481288,17.8542265 C0.0136042234,18.8638713 0.795782462,19.6056551 1.42417401,20.2018244 Z M1.55752358,16.3918939 C2.30310029,15.6413645 2.87286096,15.2763823 3.29945194,15.2763823 C3.67442887,15.2763823 3.95876206,15.5639091 4.39155402,16.0332543 C4.46870151,16.1170522 4.54730806,16.2021954 4.62846795,16.2867621 C4.75759425,16.4213001 4.99213722,16.5819768 5.37550371,16.5819768 C6.43970138,16.5819768 8.10867703,15.3250082 9.29069333,14.0793792 C10.072564,13.2554305 10.775281,12.3030941 11.2190159,11.4664604 C11.808109,10.3555615 11.8850741,9.55852043 11.4477226,9.09743973 C11.3713046,9.01690917 11.2976224,8.94041475 11.2268583,8.86718768 C10.2312362,7.8341286 10.0519549,7.64808187 11.6209853,5.59176576 C12.0167538,5.07264155 12.3988436,4.80952381 12.7564942,4.80952381 C13.3558008,4.80952381 13.9344981,5.50988982 14.4453495,6.12780329 C14.6085812,6.32518965 14.7626938,6.51162078 14.9140707,6.67133652 C15.266797,7.04285339 15.3718489,8.26426557 14.7687124,10.0676504 C14.1002832,12.0664996 12.7898701,14.1602941 11.0811352,15.9613726 C8.25677103,18.8827675 5.14278456,20.1904762 3.30930056,20.1904762 C2.64451898,20.1904762 2.396115,20.010772 2.32024418,19.9335088 C2.21263893,19.8239564 2.09409077,19.7111368 1.97134784,19.594281 C1.42657347,19.075349 0.808846387,18.4874182 0.8,17.8176116 C0.794438227,17.3834384 1.04922557,16.9037146 1.55752358,16.3918939 Z" id="Shape" transform="translate(8.000000, 12.500000) scale(-1, 1) translate(-8.000000, -12.500000) "></path>
                </g>
            </g>
        </g>
    </g>
</svg>