<?xml version="1.0" encoding="UTF-8"?>
<svg width="50px" height="51px" viewBox="0 0 50 51" version="1.1" xmlns="http://www.w3.org/2000/svg" xmlns:xlink="http://www.w3.org/1999/xlink">
    <!-- Generator: Sketch 56.3 (81716) - https://sketch.com -->
    <title>noun_Email_2129160 Copy</title>
    <desc>Created with Sketch.</desc>
    <g id="Cart-Page" stroke="none" stroke-width="1" fill="none" fill-rule="evenodd">
        <g id="Cart-Page-3.1-" transform="translate(-470.000000, -1292.000000)" fill-rule="nonzero">
            <g id="noun_Email_2129160-Copy" transform="translate(470.000000, 1292.000000)">
                <g id="Group" fill="#F94245">
                    <path d="M42.3387097,12.909375 L42.3387097,2.709375 C42.3387097,1.1953125 41.1290323,0 39.5967742,0 L10.4032258,0 C8.87096774,0 7.66129032,1.1953125 7.66129032,2.709375 L7.66129032,12.909375 L0.564516129,19.921875 C0.403225806,20.08125 0.322580645,20.240625 0.322580645,20.4796875 L0.322580645,48.2109375 C0.322580645,48.928125 0.64516129,49.6453125 1.12903226,50.1234375 C1.12903226,50.1234375 1.12903226,50.1234375 1.12903226,50.1234375 C1.12903226,50.1234375 1.12903226,50.1234375 1.12903226,50.1234375 C1.61290323,50.6015625 2.33870968,50.9203125 3.06451613,50.9203125 L46.9354839,50.9203125 C47.6612903,50.9203125 48.3064516,50.6015625 48.8709677,50.1234375 C48.8709677,50.1234375 48.8709677,50.1234375 48.9516129,50.1234375 C48.9516129,50.1234375 48.9516129,50.1234375 48.9516129,50.04375 C49.4354839,49.565625 49.7580645,48.928125 49.7580645,48.2109375 L49.7580645,20.559375 C49.7580645,20.559375 49.7580645,20.559375 49.7580645,20.559375 C49.7580645,20.3203125 49.6774194,20.1609375 49.516129,20.0015625 L42.3387097,12.909375 Z M42.3387097,15.2203125 L47.7419355,20.559375 L42.3387097,25.8984375 L42.3387097,15.2203125 Z M7.66129032,15.2203125 L7.66129032,25.8984375 L2.25806452,20.559375 L7.66129032,15.2203125 Z M1.93548387,48.290625 L1.93548387,22.471875 L15,35.38125 L1.93548387,48.290625 Z M3.06451613,49.40625 L16.1290323,36.496875 L24.4354839,44.7046875 C24.5967742,44.8640625 24.8387097,44.94375 25,44.94375 C25.1612903,44.94375 25.4032258,44.8640625 25.5645161,44.7046875 L33.8709677,36.496875 L46.9354839,49.40625 L3.06451613,49.40625 Z M48.0645161,48.290625 L35,35.38125 L48.0645161,22.471875 L48.0645161,48.290625 L48.0645161,48.290625 Z" id="Shape"></path>
                </g>
                <path d="M16.2247752,16.159769 L17.4475524,16.159769 L17.4475524,25.7690087 C17.4475524,25.9076035 17.5434565,26 17.6873127,26 L32.3126873,26 C32.4565435,26 32.5524476,25.9076035 32.5524476,25.7690087 L32.5524476,16.159769 L33.7752248,16.159769 C33.8711289,16.159769 33.967033,16.0904716 33.991009,16.0211742 C34.014985,15.9287777 33.991009,15.8363811 33.9190809,15.7670837 L25.1678322,8.05197305 C25.0719281,7.98267565 24.9280719,7.98267565 24.8561439,8.05197305 L16.0809191,15.7670837 C16.008991,15.8363811 15.985015,15.9287777 16.008991,16.0211742 C16.0569431,16.1135707 16.1288711,16.159769 16.2247752,16.159769 Z M25,8.53705486 L33.1518482,15.6977863 L32.3126873,15.6977863 C32.1688312,15.6977863 32.0729271,15.7901829 32.0729271,15.9287777 L32.0729271,25.5380173 L17.9270729,25.5380173 L17.9270729,15.9287777 C17.9270729,15.7901829 17.8311688,15.6977863 17.6873127,15.6977863 L16.8481518,15.6977863 L25,8.53705486 Z" id="Shape" stroke="#FFFFFF" stroke-width="1.12" fill="#FFFFFF"></path>
            </g>
        </g>
    </g>
</svg>