<?xml version="1.0" encoding="UTF-8"?>
<svg width="42px" height="42px" viewBox="0 0 42 42" version="1.1" xmlns="http://www.w3.org/2000/svg" xmlns:xlink="http://www.w3.org/1999/xlink">
    <!-- Generator: Sketch 57.1 (83088) - https://sketch.com -->
    <title>Shape</title>
    <desc>Created with Sketch.</desc>
    <g id="Product-Page" stroke="none" stroke-width="1" fill="none" fill-rule="evenodd">
        <g id="Product-Page-3.2" transform="translate(-169.000000, -1171.000000)" fill="#F41C1A" stroke="#F71600" stroke-width="0.4">
            <path d="M189.98436,1172 C178.946993,1172 170,1180.96377 170,1192 C170.187892,1203.29532 178.468469,1211.828 189.98436,1212 C200.846994,1211.95264 209.891509,1203.65246 210,1192 C210,1180.96264 201.021727,1172 189.98436,1172 L189.98436,1172 Z M189.984359,1174 C199.940644,1174 208,1182.05771 208,1192.03134 C208,1196.63438 206.274743,1200.8192 203.449145,1204 C201.57227,1200.43937 198.357132,1197.69641 194.456998,1196.49608 C196.692777,1195.03136 198.178968,1192.50416 198.178968,1189.63445 C198.178968,1185.11551 194.495478,1181.44126 189.984359,1181.44126 C185.48856,1181.44126 181.805359,1185.11253 181.805359,1189.63445 C181.805359,1192.5053 183.291953,1195.03177 185.527394,1196.49608 C181.627002,1197.69636 178.402264,1200.43745 176.535182,1204 C173.714739,1200.81956 172,1196.63392 172,1192.03134 C172,1182.05658 180.028075,1174 189.984359,1174 Z M189.992429,1184 C193.322496,1184 196,1186.66568 196,1190 C196,1193.33432 193.322496,1196 189.992429,1196 C186.681879,1196 184,1193.33145 184,1190 C184,1186.6686 186.681879,1184 189.992429,1184 Z M189.992153,1198 C195.314032,1198 199.879554,1201.08841 202,1205.51345 C198.811129,1208.29427 194.606678,1210 189.992153,1210 C185.381342,1210 181.183817,1208.30557 178,1205.52882 C180.100134,1201.09386 184.6612,1198 189.992153,1198 L189.992153,1198 Z" id="Shape"></path>
        </g>
    </g>
</svg>