<?xml version="1.0" encoding="UTF-8"?>
<svg width="40px" height="40px" viewBox="0 0 40 40" version="1.1" xmlns="http://www.w3.org/2000/svg" xmlns:xlink="http://www.w3.org/1999/xlink">
    <!-- Generator: Sketch 57.1 (83088) - https://sketch.com -->
    <title>noun_Info_860103</title>
    <desc>Created with Sketch.</desc>
    <g id="Product-Page" stroke="none" stroke-width="1" fill="none" fill-rule="evenodd">
        <g id="Product-Page-3.2" transform="translate(-796.000000, -1254.000000)" fill="#F41C1A" fill-rule="nonzero">
            <g id="noun_Info_860103" transform="translate(796.000000, 1254.000000)">
                <g id="Group">
                    <path d="M20,0 C8.97674419,0 0,8.97674419 0,20 C0,31.0232558 8.97674419,40 20,40 C31.0232558,40 40,31.0232558 40,20 C40,8.97674419 31.0232558,0 20,0 Z M20,37.2093023 C10.5116279,37.2093023 2.79069767,29.4883721 2.79069767,20 C2.79069767,10.5116279 10.5116279,2.79069767 20,2.79069767 C29.4883721,2.79069767 37.2093023,10.5116279 37.2093023,20 C37.2093023,29.4883721 29.4883721,37.2093023 20,37.2093023 Z" id="Shape"></path>
                    <path d="M20,15.8139535 C19.2093023,15.8139535 18.6046512,16.4186047 18.6046512,17.2093023 L18.6046512,27.9069767 C18.6046512,28.6976744 19.2093023,29.3023256 20,29.3023256 C20.7906977,29.3023256 21.3953488,28.6976744 21.3953488,27.9069767 L21.3953488,17.2093023 C21.3953488,16.4186047 20.7906977,15.8139535 20,15.8139535 Z" id="Path"></path>
                    <path d="M20,10.6976744 C18.9767442,10.6976744 18.1395349,11.5348837 18.1395349,12.5581395 C18.1395349,13.5813953 18.9767442,14.4186047 20,14.4186047 C21.0232558,14.4186047 21.8604651,13.5813953 21.8604651,12.5581395 C21.8604651,11.5348837 21.0232558,10.6976744 20,10.6976744 Z" id="Path"></path>
                </g>
            </g>
        </g>
    </g>
</svg>