<?xml version="1.0" encoding="UTF-8"?>
<svg width="48px" height="43px" viewBox="0 0 48 43" version="1.1" xmlns="http://www.w3.org/2000/svg" xmlns:xlink="http://www.w3.org/1999/xlink">
    <!-- Generator: Sketch 57.1 (83088) - https://sketch.com -->
    <title>Shape</title>
    <desc>Created with Sketch.</desc>
    <g id="Product-Page" stroke="none" stroke-width="1" fill="none" fill-rule="evenodd">
        <g id="Product-Page-3.2" transform="translate(-792.000000, -1171.000000)" fill="#F51809" fill-rule="nonzero" stroke="#F81100" stroke-width="1.2">
            <path d="M821.590104,1172 L820.835917,1172 L820.712123,1172.52154 C820.182684,1174.79198 818.245827,1176.38065 816.001083,1176.38428 C813.758623,1176.38065 811.819481,1174.79198 811.288673,1172.52154 L811.167163,1172 L810.308367,1172 L810.210154,1172.02996 C809.603059,1172.21651 795.300009,1176.60443 794.644492,1176.81458 L794.627133,1176.81776 L794.607034,1176.82502 C794.069373,1177.03473 793.549985,1177.58577 793.256716,1178.27162 C792.929643,1179.03237 792.915025,1179.83942 793.213319,1180.54796 L793.194133,1180.49667 C793.862897,1182.54924 794.705247,1185.69662 795.021357,1186.88087 L795.154287,1187.38198 C795.397765,1188.23169 796.413245,1188.81269 797.464812,1188.70421 C797.464812,1188.70421 801.029725,1188.34154 802.613015,1188.1804 C802.613015,1189.57889 802.613015,1210.28564 802.613015,1210.28564 C802.613015,1211.59879 803.548096,1213 805.283045,1213 L826.71775,1213 C828.452242,1213 829.390522,1211.59834 829.390522,1210.28564 C829.390522,1210.28564 829.390522,1189.57889 829.390522,1188.1804 C830.529796,1188.29705 834.534156,1188.70421 834.534156,1188.70421 C835.588008,1188.81315 836.603944,1188.23169 836.845594,1187.38198 L836.981723,1186.87905 C837.296005,1185.6939 838.138812,1182.54788 838.807119,1180.49667 L838.785649,1180.54796 C839.084857,1179.83942 839.070239,1179.03237 838.74545,1178.27162 C838.451267,1177.58577 837.933249,1177.03473 837.394218,1176.82502 L837.375032,1176.81776 L837.35676,1176.81458 C836.70033,1176.60443 822.39865,1172.21651 821.791098,1172.02996 L821.692428,1172 L821.590104,1172 Z M810.150313,1173.45886 C811.01733,1175.99846 813.337448,1177.7283 816.000626,1177.73511 C818.664262,1177.7283 820.983922,1175.99846 821.850026,1173.45886 C824.326828,1174.21779 836.089581,1177.8277 836.910004,1178.08688 C837.042478,1178.14045 837.316561,1178.37738 837.496543,1178.80179 C837.563237,1178.9543 837.643178,1179.20168 837.643178,1179.48764 C837.643178,1179.65785 837.614399,1179.84259 837.535828,1180.02779 L837.525322,1180.05321 L837.516186,1180.08135 C836.836915,1182.16342 835.988626,1185.33849 835.668406,1186.53227 L835.540043,1187.01205 C835.503955,1187.14413 835.137597,1187.41012 834.674396,1187.36382 L828.032894,1186.68523 L828.032894,1210.28519 C828.032894,1210.7577 827.757897,1211.64781 826.718207,1211.64781 L805.283502,1211.64781 C804.244725,1211.64781 803.968815,1210.7577 803.968815,1210.28519 L803.968815,1186.68569 L797.32777,1187.36428 C796.865026,1187.41057 796.497754,1187.14413 796.460752,1187.0125 L796.33376,1186.53681 C796.013083,1185.34076 795.167535,1182.16614 794.48598,1180.0818 L794.475474,1180.05366 L794.466338,1180.02824 C794.38731,1179.84305 794.357161,1179.65876 794.357161,1179.48809 C794.357161,1179.20213 794.439843,1178.95475 794.50608,1178.80224 C794.686518,1178.37784 794.958774,1178.1409 795.090791,1178.08734 C795.911215,1177.8277 807.674881,1174.21824 810.150313,1173.45886 Z" id="Shape"></path>
        </g>
    </g>
</svg>