<?xml version="1.0" encoding="UTF-8"?>
<svg width="42px" height="41px" viewBox="0 0 42 41" version="1.1" xmlns="http://www.w3.org/2000/svg" xmlns:xlink="http://www.w3.org/1999/xlink">
    <!-- Generator: Sketch 57.1 (83088) - https://sketch.com -->
    <title>noun_clock_70862</title>
    <desc>Created with Sketch.</desc>
    <g id="Product-Page" stroke="none" stroke-width="1" fill="none" fill-rule="evenodd">
        <g id="Product-Page-3.2" transform="translate(-477.000000, -1172.000000)" fill="#F41C1A" fill-rule="nonzero" stroke="#F71600" stroke-width="0.8">
            <g id="noun_clock_70862" transform="translate(477.000000, 1172.000000)">
                <path d="M6.55798985,34.5238095 C10.1208814,38.0490476 14.8538935,39.9909524 19.8861826,39.9909524 C20.1546164,39.9909524 20.4249778,39.9857143 20.696785,39.9742857 C31.8823272,39.5214286 40.6447368,30.8466667 40.6447368,20.2257143 C40.6447368,9.3352381 31.6784718,0.475714286 20.656785,0.475714286 C9.65244769,0.475714286 0.685700698,9.3347619 0.66881252,20.2242857 C0.661122384,25.6 2.80714648,30.8119048 6.55798985,34.5238095 Z M20.656785,2.38047619 C30.6153393,2.38047619 38.717026,10.3857143 38.717026,20.2257143 C38.717026,29.8214286 30.7666646,37.6604762 20.617267,38.0714286 C20.3724477,38.0814286 20.1281103,38.0861905 19.8857007,38.0861905 C15.3690742,38.0861905 11.1203995,36.3428571 7.92184528,33.177619 C4.53003805,29.8214286 2.58931516,25.1009524 2.59652395,20.2266667 C2.61196576,10.3866667 10.7136525,2.38047619 20.656785,2.38047619 Z" id="Shape"></path>
                <path d="M13.7261826,27.2890476 C13.8910019,27.2890476 14.0582308,27.2471429 14.2110019,27.1590476 L22.3353393,22.4766667 C22.6312429,22.3061905 22.8134115,21.9928571 22.8134115,21.6542857 L22.8134115,9.52380952 C22.8134115,8.99809524 22.3816043,8.57142857 21.8495561,8.57142857 C21.3175079,8.57142857 20.8857007,8.99809524 20.8857007,9.52380952 L20.8857007,21.1071429 L13.2394356,25.5138095 C12.7796766,25.7790476 12.6244959,26.3619048 12.8924477,26.8161905 C13.0717248,27.12 13.3946164,27.2890476 13.7261826,27.2890476 Z" id="Path"></path>
            </g>
        </g>
    </g>
</svg>