<?xml version="1.0" encoding="UTF-8"?>
<svg width="31px" height="44px" viewBox="0 0 31 44" version="1.1" xmlns="http://www.w3.org/2000/svg" xmlns:xlink="http://www.w3.org/1999/xlink">
    <!-- Generator: Sketch 57.1 (83088) - https://sketch.com -->
    <title>noun_Map Marker_70787</title>
    <desc>Created with Sketch.</desc>
    <g id="Product-Page" stroke="none" stroke-width="1" fill="none" fill-rule="evenodd">
        <g id="Product-Page-3.2" transform="translate(-174.000000, -1252.000000)" fill="#F41C1A" fill-rule="nonzero" stroke="#F5190D" stroke-width="0.8">
            <g id="noun_Map-Marker_70787" transform="translate(175.000000, 1253.000000)">
                <path d="M1.95399252e-13,14.7121333 C1.95399252e-13,30.4243333 13.6275,41.013 14.2078125,41.4563333 C14.3760938,41.5846667 14.5771875,41.6490667 14.7782813,41.6490667 C14.979375,41.6490667 15.1804688,41.5846667 15.34875,41.4563333 C15.9285938,41.0134667 29.5565625,30.4243333 29.5565625,14.7121333 C29.5565625,6.5996 22.9270313,-1.38555833e-13 14.7782813,-1.38555833e-13 C6.62953125,-1.38555833e-13 1.95399252e-13,6.60006667 1.95399252e-13,14.7121333 Z M14.7782813,1.86666667 C21.8929688,1.86666667 27.6815625,7.62906667 27.6815625,14.7121333 C27.6815625,27.72 17.345625,37.3226 14.7782813,39.5061333 C12.2109375,37.3226 1.875,27.72 1.875,14.7121333 C1.875,7.62906667 7.66359375,1.86666667 14.7782813,1.86666667 Z" id="Shape"></path>
                <path d="M14.7782812,20.9472667 C18.2315625,20.9472667 21.04125,18.1500667 21.04125,14.7121333 C21.04125,11.2742 18.2315625,8.47746667 14.7782812,8.47746667 C11.325,8.47746667 8.5153125,11.2746667 8.5153125,14.7121333 C8.5153125,18.1505333 11.3254687,20.9472667 14.7782812,20.9472667 Z M14.7782812,10.3441333 C17.1979687,10.3441333 19.16625,12.3036667 19.16625,14.7121333 C19.16625,17.1210667 17.1979687,19.0806 14.7782812,19.0806 C12.3585937,19.0806 10.3903125,17.1210667 10.3903125,14.7121333 C10.3903125,12.3036667 12.3590625,10.3441333 14.7782812,10.3441333 Z" id="Shape"></path>
            </g>
        </g>
    </g>
</svg>