<?xml version="1.0" encoding="UTF-8"?>
<svg width="55px" height="45px" viewBox="0 0 55 45" version="1.1" xmlns="http://www.w3.org/2000/svg" xmlns:xlink="http://www.w3.org/1999/xlink">
    <!-- Generator: Sketch 57.1 (83088) - https://sketch.com -->
    <title>noun_weather_610007</title>
    <desc>Created with Sketch.</desc>
    <g id="Product-Page" stroke="none" stroke-width="1" fill="none" fill-rule="evenodd">
        <g id="Product-Page-3.2" transform="translate(-467.000000, -1252.000000)" fill="#F41C1A" fill-rule="nonzero" stroke="#F71600">
            <g id="noun_weather_610007" transform="translate(468.000000, 1253.000000)">
                <path d="M21.3371053,8.60000005 C21.7923042,8.60000005 22.1613158,8.22779939 22.1613158,7.76866667 L22.1613158,0.9675 C22.1613158,0.508367278 21.7923042,0.136166667 21.3371053,0.136166667 C20.8819064,0.136166667 20.5128947,0.508367278 20.5128947,0.9675 L20.5128947,7.74716667 C20.5071446,7.97135115 20.5914357,8.18836982 20.7466328,8.34895651 C20.9018298,8.5095432 21.1147672,8.60000005 21.3371053,8.60000005 Z" id="Path"></path>
                <path d="M31.0926316,12.6563333 C31.3111906,12.6562406 31.5207645,12.5685932 31.6752632,12.4126667 L36.4286842,7.61816667 C36.6648779,7.41476184 36.7676591,7.09470838 36.6945583,6.79025333 C36.6214575,6.48579828 36.3848874,6.2486387 36.0825994,6.17676964 C35.7803115,6.10490059 35.4636348,6.21052556 35.2634211,6.45 L30.51,11.2445 C30.2794324,11.4828797 30.2121567,11.8370412 30.3390379,12.1444998 C30.4659191,12.4519585 30.7624678,12.6533715 31.0926316,12.6563333 Z" id="Path"></path>
                <path d="M11.0131579,30.9098333 L6.25263158,35.7043333 C6.03593015,35.9124992 5.94811814,36.2227831 6.02321874,36.514964 C6.09831934,36.8071449 6.32453199,37.0353125 6.61420951,37.1110621 C6.90388704,37.1868117 7.21151242,37.0982408 7.41789474,36.8796667 L12.1713158,32.0851667 C12.4499407,31.7560113 12.4315686,31.2662965 12.1290786,30.9593206 C11.8265886,30.6523447 11.3411911,30.630819 11.0131579,30.9098333 Z" id="Path"></path>
                <path d="M8.37,21.6648333 C8.37,21.2057006 8.00098838,20.8335 7.54578947,20.8335 L0.824210526,20.8335 C0.369011622,20.8335 -5.41788836e-14,21.2057006 -5.41788836e-14,21.6648333 C-5.41788836e-14,22.1239661 0.369011622,22.4961667 0.824210526,22.4961667 L7.54578947,22.4961667 C8.00098838,22.4961667 8.37,22.1239661 8.37,21.6648333 Z" id="Path"></path>
                <path d="M11.0131579,12.4126667 C11.3371152,12.7238637 11.8480458,12.7175799 12.1643838,12.3985081 C12.4807218,12.0794363 12.4869518,11.5640902 12.1784211,11.2373333 L7.41078947,6.45 C7.08683222,6.13880297 6.57590161,6.14508674 6.25956357,6.46415856 C5.94322553,6.78323039 5.9369956,7.29857645 6.24552632,7.62533333 L11.0131579,12.4126667 Z" id="Path"></path>
                <path d="M45.8289474,26.6528333 C45.5525317,23.3994543 43.5810847,20.5400403 40.6534853,19.1462717 C37.7258859,17.7525031 34.2842318,18.0348532 31.6184211,19.8875 C30.7007129,14.4736957 25.8301996,10.6672085 20.4036531,11.122742 C14.9771065,11.5782754 10.7974499,16.1444824 10.7795836,21.6368191 C10.7618315,27.1291558 14.9117868,31.7228408 20.3352632,32.2141667 C20.2655851,32.7005637 20.2370612,33.1920584 20.25,33.6833333 C20.2539115,38.7451932 24.319146,42.8487652 29.3376316,42.8566667 L45.2463158,42.8566667 C49.5174447,42.7728932 52.9799463,39.3386811 53.1347754,35.0326578 C53.2896045,30.7266344 50.0828388,27.0484568 45.8289474,26.6528333 Z M12.4342105,21.6361667 C12.451124,16.8128488 16.2652879,12.8762678 21.0456282,12.7483622 C25.8259684,12.6204566 29.841687,16.3475368 30.1121053,21.1631667 C29.2090682,22.1391925 28.5256021,23.3003698 28.1084211,24.5673333 C24.7625907,25.0409966 21.9541334,27.3491452 20.8184211,30.5586667 C16.1435618,30.2819414 12.4909371,26.3810338 12.4839474,21.6576667 L12.4342105,21.6361667 Z M45.2463158,41.2011707 L29.3660526,41.2011707 C25.4192377,41.2052661 22.1548417,38.1025432 21.9247351,34.1283894 C21.6946285,30.1542357 24.5787538,26.6893289 28.4992105,26.23 L28.7905263,26.23 L29.43,26.23 L29.5934211,25.585 C30.5280384,21.9177147 34.0230168,19.5256523 37.7469446,20.0044971 C41.4708725,20.483342 44.2590605,23.6833314 44.2515789,27.4698333 L44.2515789,28.3011667 L45.2463158,28.3011667 C48.7780314,28.3011667 51.6410526,31.18893 51.6410526,34.7511667 C51.6410526,38.3134033 48.7780314,41.2011707 45.2463158,41.2011707 L45.2463158,41.2011707 Z" id="Shape"></path>
            </g>
        </g>
    </g>
</svg>