<?xml version="1.0" encoding="UTF-8"?>
<svg width="19px" height="26px" viewBox="0 0 19 26" version="1.1" xmlns="http://www.w3.org/2000/svg" xmlns:xlink="http://www.w3.org/1999/xlink">
    <!-- Generator: Sketch 57.1 (83088) - https://sketch.com -->
    <title>noun_Map Marker_70787</title>
    <desc>Created with Sketch.</desc>
    <g id="Product-Page" stroke="none" stroke-width="1" fill="none" fill-rule="evenodd" opacity="0.5">
        <g id="Product-Page-3.2" transform="translate(-814.000000, -411.000000)" fill="#000000" fill-rule="nonzero" stroke="#000000" stroke-width="0.4">
            <g id="noun_Map-Marker_70787" transform="translate(815.000000, 412.000000)">
                <path d="M7.46069873e-14,8.75722222 C7.46069873e-14,18.1097222 8.1765,24.4125 8.5246875,24.6763889 C8.62565625,24.7527778 8.7463125,24.7911111 8.86696875,24.7911111 C8.987625,24.7911111 9.10828125,24.7527778 9.20925,24.6763889 C9.55715625,24.4127778 17.7339375,18.1097222 17.7339375,8.75722222 C17.7339375,3.92833333 13.7562188,-1.29674049e-13 8.86696875,-1.29674049e-13 C3.97771875,-1.29674049e-13 7.46069873e-14,3.92861111 7.46069873e-14,8.75722222 Z M8.86696875,1.11111111 C13.1357813,1.11111111 16.6089375,4.54111111 16.6089375,8.75722222 C16.6089375,16.5 10.407375,22.2158333 8.86696875,23.5155556 C7.3265625,22.2158333 1.125,16.5 1.125,8.75722222 C1.125,4.54111111 4.59815625,1.11111111 8.86696875,1.11111111 Z" id="Shape"></path>
                <path d="M8.86696875,12.4686111 C10.9389375,12.4686111 12.62475,10.8036111 12.62475,8.75722222 C12.62475,6.71083333 10.9389375,5.04611111 8.86696875,5.04611111 C6.795,5.04611111 5.1091875,6.71111111 5.1091875,8.75722222 C5.1091875,10.8038889 6.79528125,12.4686111 8.86696875,12.4686111 Z M8.86696875,6.15722222 C10.3187813,6.15722222 11.49975,7.32361111 11.49975,8.75722222 C11.49975,10.1911111 10.3187813,11.3575 8.86696875,11.3575 C7.41515625,11.3575 6.2341875,10.1911111 6.2341875,8.75722222 C6.2341875,7.32361111 7.4154375,6.15722222 8.86696875,6.15722222 Z" id="Shape"></path>
            </g>
        </g>
    </g>
</svg>