<?xml version="1.0" encoding="UTF-8"?>
<svg width="32px" height="37px" viewBox="0 0 32 37" version="1.1" xmlns="http://www.w3.org/2000/svg" xmlns:xlink="http://www.w3.org/1999/xlink">
    <!-- Generator: Sketch 56.3 (81716) - https://sketch.com -->
    <title>noun_report_1559748</title>
    <desc>Created with Sketch.</desc>
    <g id="Home-Page" stroke="none" stroke-width="1" fill="none" fill-rule="evenodd">
        <g id="Home-Page-4.1" transform="translate(-395.000000, -908.000000)">
            <g id="Group-18" transform="translate(143.000000, 883.000000)">
                <g id="Group-30" transform="translate(253.000000, 25.000000)">
                    <g id="noun_report_1559748">
                        <g id="Group" transform="translate(0.000000, 0.221984)">
                            <path d="M25.0952381,25.888941 C25.0952381,21.9963909 25.0952381,10.3628656 25.0952381,2.57776541 C25.0952381,1.43294217 24.1234788,0.489554703 22.9442177,0.489554703 L2.15102041,0.489554703 C0.97175932,0.489554703 0,1.43293869 0,2.57776541 L0,29.7245185 C0,30.8693452 0.97175932,31.8127292 2.15102041,31.8127292 C5.97077007,31.8127292 20.255523,31.8127292 22.5965585,31.8127292 M20.7931973,30.4205887 C18.3408659,30.4205887 6.59737469,30.4205887 2.15102041,30.4205887 C1.74139442,30.4205887 1.43401361,30.1221486 1.43401361,29.7245185 L1.43401361,2.57776541 C1.43401361,2.1801144 1.74139442,1.88169517 2.15102041,1.88169517 L22.9442177,1.88169517 C23.3538437,1.88169517 23.6612245,2.1801144 23.6612245,2.57776541 C23.6612245,10.3975783 23.6612245,22.3816685 23.6612245,26.291575 M5.01904762,5.36204634 C4.62304476,5.36204634 4.30204082,5.67367699 4.30204082,6.05811658 C4.30204082,6.44255617 4.62304476,6.75418681 5.01904762,6.75418681 L20.0761905,6.75418681 C20.4721933,6.75418681 20.7931973,6.44255617 20.7931973,6.05811658 C20.7931973,5.67367699 20.4721933,5.36204634 20.0761905,5.36204634 L5.01904762,5.36204634 Z M5.01904762,11.626661 C4.62304476,11.626661 4.30204082,11.9382917 4.30204082,12.3227313 C4.30204082,12.7071709 4.62304476,13.0188015 5.01904762,13.0188015 L20.0761905,13.0188015 C20.4721933,13.0188015 20.7931973,12.7071709 20.7931973,12.3227313 C20.7931973,11.9382917 20.4721933,11.626661 20.0761905,11.626661 L5.01904762,11.626661 Z M5.01904762,17.8913245 C4.62304476,17.8913245 4.30204082,18.2029551 4.30204082,18.5873947 C4.30204082,18.9718343 4.62304476,19.2834649 5.01904762,19.2834649 L20.0761905,19.2834649 C20.4721933,19.2834649 20.7931973,18.9718343 20.7931973,18.5873947 C20.7931973,18.2029551 20.4721933,17.8913245 20.0761905,17.8913245 L5.01904762,17.8913245 Z M4.7815735,23.9703239 C4.58661046,23.9703239 4.42857143,24.2819546 4.42857143,24.6663942 C4.42857143,25.0508338 4.58661046,25.3624644 4.7815735,25.3624644 L12.194617,25.3624644 C12.38958,25.3624644 12.547619,25.0508338 12.547619,24.6663942 C12.547619,24.2819546 12.38958,23.9703239 12.194617,23.9703239 L4.7815735,23.9703239 Z" id="Shape" stroke="#F12127" stroke-width="0.7225" fill="#F12127" fill-rule="nonzero"></path>
                            <rect id="Rectangle" fill="#F6F6F6" x="14.0238095" y="21.8357085" width="16.2380952" height="14.2307692"></rect>
                            <rect id="Rectangle" fill="#F6F6F6" x="14.0238095" y="28.9510932" width="16.9761905" height="3.55769231"></rect>
                            <path d="M26.9119784,22.7719238 C26.6411937,22.7918476 26.3797078,22.9250606 26.1979802,23.1351464 L19.9377824,30.1569143 L16.4506844,27.4243051 C16.0034856,27.0720406 15.2872556,27.1800721 14.954354,27.6499979 C14.6215055,28.1198683 14.733624,28.8645216 15.188687,29.2056619 L19.4396255,32.5263009 C19.8557393,32.8464659 20.4996502,32.7833737 20.8510965,32.387941 L27.7588717,24.6397832 C28.0528772,24.3185668 28.1325823,23.8045872 27.9506421,23.403288 C27.768702,23.0019887 27.3369129,22.7395476 26.9119784,22.7719238 L26.9119784,22.7719238 Z" id="Path" stroke="#F12127" stroke-width="0.5" fill="#F12127" fill-rule="nonzero"></path>
                        </g>
                    </g>
                </g>
            </g>
        </g>
    </g>
</svg>