<?xml version="1.0" encoding="UTF-8"?>
<svg width="37px" height="34px" viewBox="0 0 37 34" version="1.1" xmlns="http://www.w3.org/2000/svg" xmlns:xlink="http://www.w3.org/1999/xlink">
    <!-- Generator: Sketch 56.3 (81716) - https://sketch.com -->
    <title>noun_Refresh_70922</title>
    <desc>Created with Sketch.</desc>
    <g id="Home-Page" stroke="none" stroke-width="1" fill="none" fill-rule="evenodd">
        <g id="Home-Page-4.1" transform="translate(-597.000000, -909.000000)" fill="#F12127" fill-rule="nonzero" stroke="#F12127" stroke-width="0.5">
            <g id="Group-18" transform="translate(143.000000, 883.000000)">
                <g id="Group-25" transform="translate(454.000000, 27.000000)">
                    <g id="noun_Refresh_70922" transform="translate(0.500000, 0.000000)">
                        <path d="M15.9459273,0.00953474339 C6.72063943,1.25299968 0.0141579001,7.96435699 0,15.9675297 C-0.0109207295,22.115838 3.94055934,27.7420392 9.9931726,30.4403074 L1.8093318,30.4403074 C1.30593531,30.4403074 0.897381637,30.7896785 0.897381637,31.2201537 C0.897381637,31.6506289 1.30593531,32 1.8093318,32 L12.2967587,32 C12.8001552,32 13.2087089,31.6506289 13.2087089,31.2201537 L13.2087089,21.4720749 C13.2087089,21.0415997 12.8001552,20.6922286 12.2967587,20.6922286 C11.7933622,20.6922286 11.3848086,21.0415997 11.3848086,21.4720749 L11.3848086,29.2857449 C5.61900363,26.9575138 1.81389155,21.7208458 1.82392301,15.9698692 C1.83669031,8.73796453 7.89568722,2.67348973 16.2299998,1.55012112 C16.7274686,1.48305434 17.06717,1.08377303 16.9887423,0.65836687 C16.9103146,0.23296071 16.4429402,-0.0571421158 15.9459273,0.00953474339 Z" id="Path"></path>
                        <path d="M26.0665601,1.56097561 L34.6320519,1.56097561 C35.1354484,1.56097561 35.5440021,1.21131707 35.5440021,0.780487805 C35.5440021,0.349658537 35.1354484,0 34.6320519,0 L23.232675,0 C22.7292785,0 22.3207248,0.349658537 22.3207248,0.780487805 L22.3207248,9.75609756 C22.3207248,10.1869268 22.7292785,10.5365854 23.232675,10.5365854 C23.7360714,10.5365854 24.1446251,10.1869268 24.1446251,9.75609756 L24.1446251,2.51239024 C30.1721597,4.7422439 34.1865643,10.1069268 34.1760769,16.0171707 C34.1633096,23.2546341 28.1047687,29.3240976 19.7700002,30.4483902 C19.2725314,30.5155122 18.93283,30.915122 19.0112577,31.340878 C19.0819338,31.7256585 19.4699686,32 19.9108965,32 C19.9583179,32 20.0057393,31.996878 20.0540727,31.9906341 C29.2793605,30.7457561 35.9858419,24.028878 36,16.0195122 C36.0109206,9.88604878 32.0858871,4.27160976 26.0665601,1.56097561 Z" id="Path"></path>
                    </g>
                </g>
            </g>
        </g>
    </g>
</svg>