<?xml version="1.0" encoding="UTF-8"?>
<svg width="15px" height="14px" viewBox="0 0 15 14" version="1.1" xmlns="http://www.w3.org/2000/svg" xmlns:xlink="http://www.w3.org/1999/xlink">
    <!-- Generator: Sketch 58 (84663) - https://sketch.com -->
    <title>Path</title>
    <desc>Created with Sketch.</desc>
    <g id="Symbols" stroke="none" stroke-width="1" fill="none" fill-rule="evenodd" fill-opacity="0">
        <g id="Card" transform="translate(-97.000000, -183.000000)" fill="#FFD949" fill-rule="nonzero" stroke="#FFD949">
            <g id="Opinion" transform="translate(26.000000, 180.000000)">
                <path d="M85.5,8.58178748 C85.5,8.2485046 85.2334372,7.9780421 84.9042564,7.9780421 C84.8830283,7.9780421 84.8621879,7.97925995 84.8416384,7.9811882 L80.7273628,7.87959984 L79.3218499,4.03791597 C79.2509927,3.78511219 79.0220394,3.60000014 78.7500485,3.60000014 C78.4777667,3.60000014 78.2491043,3.78511219 78.1779562,4.03791597 L76.7721525,7.87959984 L72.6580708,7.9811882 C72.6374243,7.97905697 72.6163901,7.9780421 72.5954528,7.9780421 C72.2665628,7.97773764 72,8.24830163 72,8.58178748 C72,8.7949099 72.1086607,8.98144276 72.2725726,9.08891735 L75.5495502,11.5144535 L74.3802604,15.3196021 C74.3378042,15.4021109 74.3135712,15.4962907 74.3135712,15.5959508 C74.3135712,15.9295381 74.580134,16.2000006 74.9093148,16.2000006 C75.0487029,16.2000006 75.1774285,16.150881 75.2788193,16.0690826 L78.7503393,13.7615757 L82.2216654,16.0690826 C82.323347,16.150881 82.451491,16.2000006 82.5911699,16.2000006 C82.9200599,16.2000006 83.1866227,15.9295381 83.1866227,15.5959508 C83.1866227,15.4965952 83.1623897,15.4025168 83.1199335,15.3196021 L81.9507406,11.5144535 L85.2276213,9.08891735 C85.3911454,8.98123979 85.5,8.79460544 85.5,8.58178748" id="Path"></path>
            </g>
        </g>
    </g>
</svg>