<?xml version="1.0" encoding="UTF-8"?>
<svg width="41px" height="34px" viewBox="0 0 41 34" version="1.1" xmlns="http://www.w3.org/2000/svg" xmlns:xlink="http://www.w3.org/1999/xlink">
    <!-- Generator: Sketch 56.3 (81716) - https://sketch.com -->
    <title>truck</title>
    <desc>Created with Sketch.</desc>
    <g id="Home-Page" stroke="none" stroke-width="1" fill="none" fill-rule="evenodd">
        <g id="Home-Page-4.1" transform="translate(-166.000000, -909.000000)" fill="#F12127" fill-rule="nonzero" stroke="#F12127" stroke-width="1.04">
            <g id="Group-18" transform="translate(143.000000, 883.000000)">
                <g id="Group-28" transform="translate(24.000000, 26.000000)">
                    <g id="truck" transform="translate(0.000000, 1.000000)">
                        <path d="M38.8348469,17.5980029 L34.7009544,10.5236932 C34.5944645,10.3392392 34.3530983,10.2518227 34.1390002,10.2518227 L26.6632653,10.2518227 L26.6632653,1.79978634 C26.6632653,0.756821097 25.7973778,0 24.6042961,0 L2.21403796,0 C1.14062265,0 0,0.630723678 0,1.79978634 L0,25.0040379 C0,26.0059564 1.01315633,27.6010612 2.21403796,27.6010612 L5.62117347,27.6010612 C5.78596041,30.0496696 7.84337755,31.9930603 10.3558849,31.9930603 C12.8683604,31.9930603 14.9258094,30.0496696 15.0905645,27.6010612 L24.6042961,27.6010612 C24.6443308,27.6010612 24.6855196,27.5939243 24.7259124,27.5906516 C24.8825492,30.0473432 26.9438584,32 29.4621839,32 C32.0788451,32 34.2081735,29.8925407 34.2124197,27.300525 C34.285883,27.3024571 34.3659523,27.310146 34.4370716,27.310146 C38.0171483,27.310146 38.8550115,25.0173258 38.887286,24.9133487 C38.9043983,24.8573185 39,24.7990014 39,24.7404478 L39,17.891205 C39,17.7884108 38.8861319,17.687312 38.8348469,17.5980029 Z M10.3558849,30.8101577 C8.39446347,30.8101577 6.79873469,29.22909 6.79873469,27.2856993 C6.79873469,25.3421115 8.39446347,23.7610438 10.3558849,23.7610438 C12.3173063,23.7610438 13.9130033,25.3421115 13.9130033,27.2856993 C13.9130033,29.22909 12.3173063,30.8101577 10.3558849,30.8101577 Z M15.0225612,26.4181585 C14.6102278,24.2360186 12.6763849,22.5781412 10.3558849,22.5781412 C8.0353451,22.5781412 6.1015102,24.2360186 5.68917673,26.4181585 L2.21403796,26.4181585 C1.86271959,26.4181585 1.19387755,25.5727775 1.19387755,25.0040379 L1.19387755,1.79978634 C1.19387755,1.37890959 1.80246857,1.18290262 2.21403796,1.18290262 L24.6042961,1.18290262 C24.6928818,1.18290262 25.4693878,1.20021243 25.4693878,1.79978634 L25.4693878,24.4466542 C25.4693878,24.5277224 25.486102,24.6047294 25.5156227,24.6749938 C25.1744085,25.1786343 24.928792,25.7508437 24.8044298,26.3659925 C24.7309665,26.3973789 24.6614033,26.4181585 24.6042961,26.4181585 L15.0225612,26.4181585 Z M29.4621839,30.8170974 C27.5003645,30.8170974 25.9046676,29.2360297 25.9046676,27.2926351 C25.9046676,25.3490472 27.5003645,23.7679796 29.4621839,23.7679796 C31.4232073,23.7679796 33.0189441,25.3490472 33.0189441,27.2926351 C33.0189441,29.2360297 31.4232073,30.8170974 29.4621839,30.8170974 Z M37.8061224,24.6301224 C37.4081633,24.9545531 36.8135605,26.2417838 34.1424624,26.1134034 C33.6119829,24.0876038 31.7131604,22.5850809 29.5057206,22.5850809 C28.4587298,22.5850809 27.4494655,22.9264272 26.6632653,23.4970988 L26.6632653,11.4347253 L33.792338,11.4347253 L37.8061224,18.0481367 L37.8061224,24.6301224 Z" id="Shape"></path>
                    </g>
                </g>
            </g>
        </g>
    </g>
</svg>