<?xml version="1.0" encoding="UTF-8"?>
<svg width="21px" height="17px" viewBox="0 0 21 17" version="1.1" xmlns="http://www.w3.org/2000/svg" xmlns:xlink="http://www.w3.org/1999/xlink">
    <!-- Generator: Sketch 56.3 (81716) - https://sketch.com -->
    <title>twitter</title>
    <desc>Created with Sketch.</desc>
    <defs>
        <path d="M17.9441406,4.04820313 C17.9568359,4.22585938 17.9568359,4.40355469 17.9568359,4.58121094 C17.9568359,9.99996094 13.8325,16.2436328 6.29441406,16.2436328 C3.97207031,16.2436328 1.81472656,15.5710156 0,14.4035547 C0.329960937,14.4416016 0.6471875,14.4542969 0.98984375,14.4542969 C2.90605469,14.4542969 4.67003906,13.8071094 6.07867187,12.7030469 C4.27664062,12.6649609 2.76648437,11.4847656 2.24617187,9.86039063 C2.5,9.8984375 2.75378906,9.92382813 3.0203125,9.92382813 C3.38832031,9.92382813 3.75636719,9.87304688 4.09898437,9.78425781 C2.22082031,9.40351563 0.812148438,7.75378906 0.812148438,5.76140625 L0.812148438,5.71066406 C1.3578125,6.01523438 1.99238281,6.20558594 2.66492187,6.2309375 C1.56085937,5.49488281 0.837539062,4.23855469 0.837539062,2.81722656 C0.837539062,2.05582031 1.04054687,1.35785156 1.39589844,0.748710938 C3.41367187,3.23601563 6.44667969,4.86035156 9.84765625,5.03804688 C9.78421875,4.73347656 9.74613281,4.41625 9.74613281,4.09898438 C9.74613281,1.84007813 11.5735547,0 13.8451172,0 C15.0253125,0 16.0912891,0.494921875 16.8400391,1.29441406 C17.7664062,1.11675781 18.6547266,0.774101563 19.4415625,0.304570313 C19.1369531,1.25636719 18.4897656,2.05585938 17.6395312,2.5634375 C18.4644141,2.47464844 19.2639062,2.24617188 19.9999219,1.92894531 C19.4416406,2.74109375 18.7436328,3.46441406 17.9441406,4.04820313 Z" id="path-1"></path>
    </defs>
    <g id="Home-Page" stroke="none" stroke-width="1" fill="none" fill-rule="evenodd">
        <g id="Home-Page-4.1" transform="translate(-603.000000, -3821.000000)">
            <g id="FOOOTER#1" transform="translate(348.000000, 3751.000000)">
                <g id="Social_icons" transform="translate(219.000000, 68.000000)">
                    <g id="Group-33">
                        <g id="twitter" transform="translate(36.750000, 2.000000)">
                            <mask id="mask-2" fill="white">
                                <use xlink:href="#path-1"></use>
                            </mask>
                            <use fill="#000000" fill-rule="nonzero" xlink:href="#path-1"></use>
                        </g>
                    </g>
                </g>
            </g>
        </g>
    </g>
</svg>