<?xml version="1.0" encoding="UTF-8"?>
<svg width="25px" height="21px" viewBox="0 0 25 21" version="1.1" xmlns="http://www.w3.org/2000/svg" xmlns:xlink="http://www.w3.org/1999/xlink">
    <!-- Generator: Sketch 56.3 (81716) - https://sketch.com -->
    <title>Path</title>
    <desc>Created with Sketch.</desc>
    <g id="Home-Page" stroke="none" stroke-width="1" fill="none" fill-rule="evenodd">
        <g id="Home-Page-4.1" transform="translate(-332.000000, -3585.000000)" fill="#FFFFFF" fill-rule="nonzero">
            <g id="Group-13" transform="translate(0.000000, 3418.000000)">
                <g id="twitter-logo-silhouette" transform="translate(332.000000, 167.000000)">
                    <path d="M25,2.48463044 C24.0798596,2.90626188 23.0925622,3.1922075 22.0552239,3.31986707 C23.1144169,2.6639537 23.9252025,1.62358309 24.309476,0.387709985 C23.3159286,0.995127927 22.2192357,1.43619133 21.050688,1.67528902 C20.114943,0.64298689 18.7839359,0 17.3076263,0 C14.4753504,0 12.1789006,2.37479758 12.1789006,5.30209668 C12.1789006,5.71726488 12.224203,6.12275934 12.3117031,6.51051157 C8.05001315,6.28915612 4.27104456,4.17770393 1.74183291,0.969274962 C1.29971618,1.75120042 1.04820433,2.66230621 1.04820433,3.63487616 C1.04820433,5.4749567 1.95429241,7.09853979 3.32904956,8.04842502 C2.48856616,8.01936156 1.69808284,7.78026388 1.0060474,7.38283791 L1.0060474,7.44907557 C1.0060474,10.0177281 2.77447349,12.1614965 5.11933026,12.6494079 C4.68971355,12.7689567 4.23668993,12.8351944 3.76802086,12.8351944 C3.43685202,12.8351944 3.11659006,12.8012729 2.80257811,12.7366405 C3.4555612,14.8448822 5.3489875,16.3779799 7.59233267,16.4200121 C5.83795889,17.8416717 3.62586377,18.6865821 1.22320461,18.6865821 C0.809233348,18.6865821 0.401471244,18.6607291 0,18.6138812 C2.2698975,20.1211682 4.96471399,21 7.86104226,21 C17.295208,21 22.4520792,12.9192165 22.4520792,5.91116212 L22.4348814,5.22458003 C23.4424811,4.48139178 24.3141737,3.54764352 25,2.48463044 Z" id="Path"></path>
                </g>
            </g>
        </g>
    </g>
</svg>