<?xml version="1.0" encoding="UTF-8"?>
<svg width="29px" height="28px" viewBox="0 0 29 28" version="1.1" xmlns="http://www.w3.org/2000/svg" xmlns:xlink="http://www.w3.org/1999/xlink">
    <!-- Generator: Sketch 56.3 (81716) - https://sketch.com -->
    <title>Shape</title>
    <desc>Created with Sketch.</desc>
    <g id="Home-Page" stroke="none" stroke-width="1" fill="none" fill-rule="evenodd" opacity="0.699999988">
        <g id="Home-Page-4.1" transform="translate(-1022.000000, -83.000000)" fill="#000000" stroke="#000000" stroke-width="0.5">
            <g id="Group-32" transform="translate(0.000000, 24.000000)">
                <g id="Header" transform="translate(174.000000, 0.000000)">
                    <path d="M862.489443,59.3704081 C855.03922,59.3704081 849,65.4358936 849,72.9037429 C849.126827,80.5469074 854.716217,86.3206881 862.489443,86.4370747 C869.821721,86.4050253 875.926768,80.7885696 876,72.9037429 C876,65.4351308 869.939666,59.3704081 862.489443,59.3704081 L862.489443,59.3704081 Z M862.489443,60.7247993 C869.20935,60.7247993 874.648942,66.1672348 874.648942,72.9037429 C874.648942,76.0127798 873.484495,78.8393392 871.577382,80.9877556 C870.310602,78.5827903 868.140573,76.730108 865.508211,75.9193691 C867.017231,74.9300518 868.020323,73.2230988 868.020323,71.2848058 C868.020323,68.2325658 865.534183,65.7508634 862.489443,65.7508634 C859.455042,65.7508634 856.969098,68.2305543 856.969098,71.2848058 C856.969098,73.2238677 857.972462,74.9303286 859.481253,75.9193691 C856.848718,76.7300772 854.672209,78.5814985 853.412038,80.9877556 C851.508405,78.8395853 850.351057,76.0124723 850.351057,72.9037429 C850.351057,66.166472 855.769536,60.7247993 862.489443,60.7247993 Z M862.489443,67.1052516 C864.806368,67.1052516 866.669266,68.9621477 866.669266,71.2848058 C866.669266,73.6074762 864.806368,75.4643723 862.489443,75.4643723 C860.186097,75.4643723 858.320154,73.6054769 858.320154,71.2848058 C858.320154,68.9641777 860.186097,67.1052516 862.489443,67.1052516 Z M862.489443,76.818782 C866.072812,76.818782 869.146905,78.9456374 870.57466,81.9929746 C868.427504,83.9080026 865.596531,85.082665 862.489443,85.082665 C859.384856,85.082665 856.558546,83.9157843 854.414794,82.0035552 C855.828873,78.9493898 858.899965,76.818782 862.489443,76.818782 L862.489443,76.818782 Z" id="Shape"></path>
                </g>
            </g>
        </g>
    </g>
</svg>