<?xml version="1.0" encoding="UTF-8"?>
<svg width="24px" height="17px" viewBox="0 0 24 17" version="1.1" xmlns="http://www.w3.org/2000/svg" xmlns:xlink="http://www.w3.org/1999/xlink">
    <!-- Generator: Sketch 56.3 (81716) - https://sketch.com -->
    <title>youtube</title>
    <desc>Created with Sketch.</desc>
    <defs>
        <path d="M470.498497,171.659924 C470.222477,170.612919 469.409226,169.788331 468.376644,169.508495 C466.505015,169 459,169 459,169 C459,169 451.495029,169 449.623356,169.508495 C448.590774,169.788375 447.777523,170.612919 447.501503,171.659924 C447,173.557682 447,177.517177 447,177.517177 C447,177.517177 447,181.476672 447.501503,183.37443 C447.777523,184.421435 448.590774,185.211669 449.623356,185.491505 C451.495029,186 459,186 459,186 C459,186 466.504971,186 468.376644,185.491505 C469.409226,185.211669 470.222477,184.421435 470.498497,183.37443 C471,181.476672 471,177.517177 471,177.517177 C471,177.517177 471,173.557682 470.498497,171.659924 Z M456.545438,181.112102 L456.545438,173.922253 L462.81814,177.517266 L456.545438,181.112102 Z" id="path-1"></path>
    </defs>
    <g id="Home-Page" stroke="none" stroke-width="1" fill="none" fill-rule="evenodd">
        <g id="Home-Page-4.1" transform="translate(-447.000000, -3587.000000)">
            <g id="Group-13" transform="translate(0.000000, 3418.000000)">
                <mask id="mask-2" fill="white">
                    <use xlink:href="#path-1"></use>
                </mask>
                <use id="youtube" fill="#FFFFFF" fill-rule="nonzero" xlink:href="#path-1"></use>
            </g>
        </g>
    </g>
</svg>